
<svg version="1.0" xmlns="http://www.w3.org/2000/svg"
 width="1024.000000pt" height="1024.000000pt" viewBox="0 0 1024.000000 1024.000000"
 preserveAspectRatio="xMidYMid meet">

<g transform="translate(0.000000,1024.000000) scale(0.100000,-0.100000)"
fill="#000000" stroke="none">
<path d="M5738 9883 c7 -3 16 -2 19 1 4 3 -2 6 -13 5 -11 0 -14 -3 -6 -6z"/>
<path d="M4925 9843 c-163 -13 -288 -27 -395 -44 -157 -26 -425 -84 -507 -111
-59 -20 -62 -22 -57 -47 25 -113 27 -114 91 -81 33 17 189 60 265 74 14 2 35
9 45 14 38 21 331 50 370 38 16 -5 23 -20 32 -69 21 -116 19 -140 -9 -154 -14
-6 -50 -16 -80 -21 -195 -34 -465 -98 -497 -118 -12 -8 -28 -14 -36 -14 -7 0
-21 -6 -30 -12 -16 -12 -16 -17 3 -83 11 -38 20 -85 20 -102 0 -38 0 -38 66
-19 224 64 614 126 796 126 60 0 74 3 89 22 26 29 24 39 -14 67 -82 61 -113
135 -102 240 9 83 16 99 55 137 80 79 208 103 281 53 53 -35 109 -130 116
-194 9 -88 -10 -142 -73 -207 -31 -32 -60 -58 -65 -58 -5 0 -9 -4 -9 -10 0 -9
8 -12 26 -9 4 0 10 -4 13 -10 4 -6 24 -12 44 -13 20 -2 37 -6 37 -10 0 -4 8
-7 18 -7 48 -2 320 -32 412 -46 103 -16 243 -44 350 -71 67 -17 70 -17 70 -1
0 7 9 20 19 29 35 30 65 184 32 163 -5 -2 -32 5 -62 17 -30 12 -68 21 -86 21
-18 0 -30 4 -27 9 3 4 1 8 -5 8 -5 0 -17 3 -27 7 -12 4 -15 3 -10 -5 4 -7 3
-12 -3 -12 -5 0 -13 5 -16 11 -4 6 -14 8 -22 5 -8 -3 -11 -1 -8 4 3 5 -7 12
-22 15 -15 4 -48 11 -71 16 -24 5 -52 7 -63 4 -10 -4 -19 -2 -19 3 0 5 -54 19
-120 32 -109 20 -120 24 -120 43 0 49 24 193 34 206 9 11 36 13 137 8 149 -7
235 -25 378 -79 58 -22 116 -41 128 -42 12 -2 37 -12 55 -23 30 -18 35 -18 48
-4 22 22 40 69 40 102 0 26 -5 30 -66 49 -205 63 -554 127 -819 149 -109 10
-531 12 -630 4z"/>
<path d="M6400 9750 c0 -5 5 -10 11 -10 5 0 7 5 4 10 -3 6 -8 10 -11 10 -2 0
-4 -4 -4 -10z"/>
<path d="M3715 9591 c-235 -80 -355 -131 -357 -149 -3 -40 5 -78 22 -102 17
-24 24 -53 21 -92 -1 -11 -25 -29 -63 -49 -35 -17 -81 -41 -103 -53 -22 -13
-78 -42 -125 -66 -47 -25 -86 -48 -88 -52 -2 -4 -9 -8 -16 -8 -13 0 -223 -135
-356 -228 -207 -145 -470 -394 -699 -662 -262 -306 -541 -750 -662 -1057 -17
-43 -37 -88 -45 -101 -14 -21 -16 -22 -45 -6 -26 13 -30 19 -24 42 12 46 157
365 213 467 96 173 300 476 441 650 107 134 440 468 586 590 146 122 464 340
620 425 33 18 93 52 132 76 40 24 76 44 80 44 5 1 19 9 31 20 24 20 24 20 7
71 -9 28 -23 53 -30 56 -19 7 -347 -160 -504 -257 -252 -154 -504 -340 -706
-520 -137 -122 -400 -393 -506 -520 -194 -234 -453 -610 -543 -788 -19 -39
-40 -73 -46 -77 -24 -15 -19 27 10 85 17 34 26 60 20 58 -6 -2 -25 -36 -42
-76 -29 -70 -30 -74 -14 -106 20 -43 20 -79 1 -117 -18 -34 -69 -69 -102 -69
-12 0 -25 -4 -28 -10 -3 -5 0 -10 8 -10 35 0 37 -25 7 -98 -38 -93 -126 -366
-133 -413 -5 -35 -4 -36 81 -94 48 -32 130 -89 183 -126 l97 -68 -14 -63 c-8
-35 -18 -94 -24 -133 -6 -38 -17 -79 -24 -90 -7 -11 -21 -74 -30 -140 -23
-166 -25 -176 -37 -191 -6 -7 -17 -10 -25 -7 -17 6 -19 91 -3 213 12 98 27
136 52 132 14 -2 17 5 17 36 0 21 7 80 16 131 9 51 14 94 12 95 -1 1 -25 18
-53 37 -27 19 -69 46 -93 59 -36 21 -45 22 -52 10 -22 -36 -52 -220 -86 -530
-25 -225 -25 -579 1 -784 l19 -160 111 -106 c60 -58 138 -132 172 -165 35 -32
63 -62 63 -67 0 -4 -27 -29 -60 -55 -68 -52 -70 -60 -44 -173 31 -138 38 -118
-70 -196 -52 -38 -96 -74 -96 -81 -1 -51 156 -473 182 -489 24 -15 60 -88 55
-113 -3 -15 3 -42 15 -65 36 -71 160 -269 232 -371 122 -173 312 -405 332
-405 11 0 375 371 382 389 1 4 -7 18 -18 31 -11 13 -20 26 -20 31 0 4 -18 36
-40 70 -107 171 -173 284 -228 389 -45 85 -65 114 -78 112 -9 -2 -60 -28 -114
-58 -54 -30 -103 -54 -109 -54 -10 0 -31 31 -31 47 0 5 39 37 88 71 48 33 98
70 111 80 l24 19 -51 119 c-120 285 -200 583 -258 964 -22 139 -26 213 -31
475 -4 203 -2 346 6 415 28 256 95 572 176 833 l46 148 -23 19 c-13 11 -132
102 -265 202 -134 100 -245 190 -249 200 -3 10 0 25 6 33 21 26 62 17 100 -19
50 -50 161 -136 260 -202 94 -63 167 -118 191 -145 16 -17 20 -10 73 119 31
75 94 206 141 290 277 501 648 936 1095 1283 93 73 343 236 485 318 202 116
556 275 740 331 22 7 45 17 50 22 7 7 2 8 -12 3 -25 -7 -30 4 -12 22 9 9 3 40
-25 125 -20 62 -47 151 -61 198 -63 219 -67 230 -83 230 -10 0 -80 -22 -157
-49z m75 -307 c6 -14 10 -29 10 -33 0 -4 -57 -34 -127 -66 -180 -82 -348 -166
-439 -221 -109 -65 -220 -124 -232 -124 -6 0 -16 9 -22 21 -15 27 1 45 95 110
39 27 93 65 120 85 28 19 84 52 125 72 41 20 77 39 80 42 5 7 92 38 126 44 10
2 66 25 124 50 58 25 111 45 118 46 7 0 17 -12 22 -26z m-956 -560 c30 -30 13
-74 -29 -74 -60 0 -59 88 2 90 6 0 19 -7 27 -16z m-314 -302 l23 -19 -242
-239 c-134 -131 -249 -243 -257 -247 -8 -4 -19 -5 -24 -2 -20 12 -9 40 41 99
60 72 417 426 429 426 4 0 18 -8 30 -18z m-1438 -1819 c24 -22 23 -62 -4 -90
-24 -25 -48 -29 -81 -12 -43 23 -49 62 -17 97 25 26 76 29 102 5z m-72 -1232
c14 -10 32 -40 42 -69 21 -64 10 -113 -34 -154 -89 -83 -228 -14 -228 113 0
37 6 48 44 85 61 58 120 66 176 25z m-74 -446 c7 -44 15 -110 19 -147 7 -64 6
-68 -13 -68 -12 0 -24 4 -27 10 -10 16 -38 258 -31 275 3 9 14 15 23 13 14 -2
20 -20 29 -83z m258 -1037 c8 -22 6 -32 -9 -48 -22 -24 -42 -25 -67 -3 -21 18
-23 36 -7 64 16 31 71 22 83 -13z m91 -598 c0 -18 -6 -26 -23 -28 -24 -4 -38
18 -28 44 3 9 15 14 28 12 17 -2 23 -10 23 -28z m310 -109 c7 -12 -12 -24 -25
-16 -11 7 -4 25 10 25 5 0 11 -4 15 -9z"/>
<path d="M6527 9633 c-3 -5 -30 -93 -61 -198 -31 -104 -63 -210 -71 -235 -16
-46 -19 -99 -9 -136 4 -17 35 -31 157 -73 176 -61 475 -204 662 -316 435 -261
775 -554 1105 -950 206 -248 434 -623 540 -889 37 -95 58 -136 68 -136 9 0
244 178 384 291 121 98 129 102 156 83 45 -31 30 -48 -175 -201 -211 -157
-313 -238 -326 -259 -4 -7 14 -77 42 -161 74 -221 131 -469 151 -653 6 -58 13
-121 15 -140 13 -115 16 -454 6 -605 -27 -384 -111 -811 -216 -1088 -14 -38
-22 -73 -19 -79 4 -6 3 -8 -3 -5 -5 3 -19 -20 -30 -51 -12 -31 -30 -82 -42
-112 l-21 -55 38 -35 c21 -19 62 -53 91 -75 79 -60 82 -64 71 -85 -18 -34 -30
-32 -103 12 -105 63 -124 70 -148 55 -10 -6 -22 -20 -25 -29 -3 -10 -12 -25
-20 -33 -8 -8 -17 -24 -19 -35 -5 -24 -45 -93 -57 -98 -4 -2 -8 -9 -8 -17 0
-7 -7 -18 -15 -25 -8 -7 -12 -16 -9 -21 3 -5 -2 -12 -10 -15 -9 -3 -16 -10
-16 -15 0 -16 -125 -199 -136 -199 -5 0 -29 27 -52 59 l-42 60 23 43 c12 24
32 53 45 66 13 12 20 22 16 22 -3 0 9 19 28 43 66 81 156 250 233 437 72 175
161 418 179 485 27 104 64 268 71 315 8 60 12 84 34 230 45 289 50 608 16 932
-43 407 -167 793 -408 1275 -263 523 -751 1062 -1272 1405 -375 246 -758 422
-1120 516 -157 41 -460 98 -605 114 -156 17 -753 17 -880 0 -569 -78 -1019
-234 -1505 -523 -302 -180 -499 -333 -728 -564 -243 -243 -367 -396 -556 -678
-154 -230 -272 -467 -376 -753 -211 -581 -266 -1217 -164 -1869 36 -228 131
-580 185 -687 8 -15 14 -30 13 -33 -8 -33 175 -420 193 -409 8 5 9 1 5 -11 -6
-14 -3 -16 12 -12 10 2 18 -1 17 -7 -2 -18 164 -343 189 -370 13 -14 21 -26
20 -28 -2 -2 5 -14 15 -28 10 -14 22 -22 25 -18 4 3 -2 15 -12 25 -10 10 -17
25 -17 33 1 8 2 20 3 26 2 19 49 22 72 6 15 -10 19 -22 16 -39 -2 -13 4 -48
15 -76 11 -29 22 -65 24 -80 3 -28 3 -29 -21 -13 -14 9 -25 14 -25 12 0 -3 16
-32 35 -65 19 -32 35 -63 35 -68 0 -11 66 -173 109 -268 l32 -70 -56 55 c-31
30 -90 99 -132 152 -42 53 -91 104 -108 114 -32 17 -34 17 -63 -2 -17 -11
-147 -132 -289 -269 -142 -138 -294 -284 -338 -325 -44 -41 -129 -122 -190
-180 -174 -167 -296 -277 -345 -311 l-45 -33 35 39 c19 22 42 45 50 52 8 7 10
13 4 13 -14 0 -184 -165 -184 -180 0 -33 75 -14 89 23 8 21 111 118 235 222
43 36 78 67 141 123 11 10 61 61 110 115 144 156 303 287 349 287 23 0 83 -43
137 -98 25 -25 42 -41 159 -139 27 -23 44 -45 42 -55 -4 -19 85 -90 156 -123
26 -13 71 -43 100 -69 30 -25 59 -46 65 -46 14 0 17 -2 -145 126 -233 187
-488 430 -488 467 0 4 8 7 18 7 9 0 47 -33 84 -72 l68 -73 116 118 c115 118
146 136 152 91 2 -15 -17 -39 -65 -85 -37 -35 -88 -86 -112 -112 l-44 -48 54
-55 c62 -64 341 -296 443 -370 38 -27 138 -94 224 -149 141 -91 175 -121 132
-119 -8 0 -89 50 -180 110 -91 60 -169 110 -175 112 -16 5 47 -47 90 -75 22
-14 44 -32 48 -39 4 -8 13 -14 19 -14 6 0 26 -11 44 -25 52 -40 162 -95 189
-95 27 0 45 -25 45 -65 0 -14 4 -35 10 -45 11 -21 16 -630 4 -675 l-7 -30 20
24 c13 16 26 22 37 18 28 -11 31 -38 7 -59 -13 -10 -19 -18 -14 -18 6 0 18 10
29 21 18 20 19 40 19 309 0 273 1 289 20 310 27 29 61 23 183 -34 53 -25 121
-54 151 -66 29 -11 73 -34 96 -50 103 -71 108 -114 34 -275 l-50 -110 10 -170
c12 -187 32 -387 38 -381 3 2 11 73 18 158 24 273 37 382 47 410 6 15 30 49
54 75 28 31 49 67 59 99 22 77 61 79 225 12 87 -36 181 -63 260 -74 25 -3 79
-13 120 -21 41 -9 93 -19 115 -22 22 -4 52 -15 66 -24 14 -9 59 -29 100 -43
41 -14 79 -29 84 -34 6 -4 39 -20 75 -35 36 -15 101 -44 145 -65 98 -47 133
-56 307 -83 123 -18 144 -19 210 -7 71 13 137 35 188 65 14 8 42 23 63 35 21
11 47 30 57 40 11 11 27 20 35 20 9 0 37 12 64 26 27 14 80 30 118 35 37 5 74
12 82 14 8 3 57 10 109 15 168 18 387 68 536 124 38 14 79 26 90 26 12 0 48
13 81 30 78 38 126 39 155 3 12 -16 27 -41 34 -58 7 -16 36 -60 63 -97 49 -64
51 -69 57 -150 4 -45 11 -115 16 -155 5 -40 13 -136 16 -214 8 -155 18 -158
28 -9 7 102 19 205 40 340 14 88 12 145 -7 169 -13 15 -23 33 -55 91 -21 38
-23 49 -16 119 4 42 6 86 5 99 -2 18 5 25 36 37 21 8 55 24 75 35 20 11 42 20
48 20 6 0 41 18 77 40 36 21 82 45 102 51 35 11 228 113 364 191 39 22 77 54
90 73 12 19 29 36 37 39 8 3 27 15 41 27 23 18 30 19 49 9 17 -9 60 -11 149
-7 172 6 267 37 354 113 65 57 86 63 101 29 5 -11 27 -31 49 -45 23 -14 111
-92 196 -175 194 -188 190 -185 196 -185 7 0 105 -90 232 -215 61 -60 159
-155 218 -210 58 -55 140 -134 183 -176 101 -99 132 -125 132 -111 0 27 -267
316 -326 352 -19 12 -34 28 -34 35 0 8 -20 28 -45 45 -24 17 -51 40 -60 53
-24 34 -251 273 -330 346 -38 36 -108 104 -155 151 -47 47 -94 92 -105 100
-28 20 -35 27 276 -288 153 -155 279 -287 279 -293 0 -6 -21 9 -47 34 -27 24
-106 97 -178 162 -175 159 -495 465 -495 473 0 4 4 14 10 22 7 11 19 6 62 -30
l53 -45 -53 63 c-28 35 -52 67 -52 73 0 5 12 33 28 62 46 88 53 118 59 245 4
94 9 122 19 122 9 0 14 -13 15 -37 0 -31 2 -34 9 -17 4 12 15 24 24 27 13 5
13 10 -1 47 -20 51 -10 62 24 28 22 -23 24 -29 13 -42 -11 -14 -8 -16 22 -16
40 0 121 -58 194 -139 25 -28 51 -51 57 -51 7 0 -79 88 -191 196 -122 119
-211 213 -224 237 -26 51 -39 97 -29 97 5 0 56 -49 114 -109 l105 -109 71 80
c144 160 330 423 464 655 38 65 71 109 82 112 13 2 16 -1 12 -12 -4 -11 -1
-14 9 -10 15 6 19 19 29 96 4 30 2 47 -4 47 -18 0 -13 22 33 125 52 121 113
295 121 350 l6 40 -67 45 c-36 25 -80 56 -96 70 l-29 25 21 118 c11 66 20 122
20 126 0 4 -21 23 -47 41 -64 44 -75 58 -62 81 5 10 78 79 162 154 83 75 157
144 164 153 24 33 44 245 50 522 7 373 -12 602 -73 870 -15 63 -28 117 -30
119 -2 2 -9 -1 -16 -7 -13 -10 -19 -12 -37 -12 -6 0 -133 -89 -149 -104 -1 -2
7 -47 18 -102 12 -54 19 -112 18 -129 -2 -24 1 -30 17 -30 11 0 25 -11 31 -25
15 -31 29 -151 29 -250 0 -69 -2 -75 -21 -78 -26 -4 -30 6 -43 110 -20 154
-33 233 -42 253 -5 11 -18 65 -29 120 -36 172 -38 156 19 190 27 17 109 70
181 119 l132 90 -6 39 c-9 53 -79 268 -127 386 -36 91 -37 96 -21 116 17 20
17 20 -4 3 -43 -37 -58 -10 -28 51 15 30 15 34 0 50 -13 14 -14 27 -7 66 8 41
6 54 -9 75 -9 14 -34 57 -54 95 -19 39 -56 93 -82 120 l-46 50 27 -45 c40 -69
105 -198 105 -210 0 -5 -6 -10 -12 -10 -7 0 -44 55 -82 123 -225 402 -501 758
-846 1093 -422 410 -750 644 -1245 891 -145 73 -140 72 -158 19 -27 -78 -21
-85 148 -171 131 -68 221 -119 235 -135 8 -9 75 -55 80 -55 5 0 81 -55 90 -65
3 -3 21 -17 40 -30 41 -29 252 -193 295 -231 204 -176 414 -384 505 -499 29
-36 59 -74 69 -85 46 -55 194 -260 243 -335 132 -205 116 -177 207 -360 38
-74 94 -197 126 -274 56 -132 58 -139 40 -152 -39 -29 -49 -20 -95 86 -118
271 -219 458 -371 687 -307 460 -700 853 -1159 1160 -116 77 -342 208 -390
224 -16 6 -30 15 -30 20 0 5 -5 9 -11 9 -15 0 -139 74 -139 83 0 4 14 49 30
99 17 50 27 95 22 100 -14 14 -192 84 -364 142 -180 61 -175 59 -181 49z m244
-383 c196 -89 380 -183 479 -245 188 -117 197 -126 163 -158 -17 -14 -29 -9
-158 65 -137 78 -498 261 -602 306 -29 12 -53 25 -53 28 0 7 30 64 34 64 2 0
63 -27 137 -60z m-1790 -446 c118 -20 221 -54 324 -107 61 -31 101 -62 171
-132 78 -77 98 -105 141 -193 28 -56 50 -102 48 -102 -2 0 -33 38 -69 84 -176
226 -402 357 -611 355 -77 -1 -122 -17 -50 -18 144 -2 325 -93 325 -162 0 -19
-6 -32 -17 -37 -11 -4 9 -9 51 -12 70 -5 97 -22 54 -34 -13 -3 -133 -6 -268
-6 -276 0 -480 -22 -547 -58 -12 -7 -31 -12 -42 -12 -12 0 -29 -4 -39 -10 -9
-5 -37 -18 -62 -30 -52 -23 -133 -67 -173 -94 -37 -25 -43 -15 -22 36 13 32
19 81 23 188 l5 144 -29 -18 c-173 -111 -313 -258 -411 -433 -46 -84 -132
-285 -168 -398 -32 -98 -43 -92 -26 13 36 210 163 465 336 672 157 188 386
318 642 364 107 19 299 19 414 0z m1350 -59 c85 -18 208 -69 275 -116 98 -67
234 -212 278 -296 9 -18 15 -33 13 -33 -2 0 -46 41 -98 91 -106 104 -152 137
-205 149 -60 14 -61 0 -3 -32 53 -28 132 -97 150 -130 12 -23 -32 -74 -71 -83
-16 -4 -77 3 -137 14 -59 11 -144 25 -188 31 -186 25 -257 50 -331 117 -58 52
-68 93 -33 137 25 32 119 76 160 76 16 0 29 5 29 12 0 8 -31 9 -115 5 -121 -7
-229 -35 -351 -93 -31 -14 -58 -23 -62 -19 -3 3 -2 9 3 13 93 67 208 121 328
152 90 24 258 26 358 5z m1291 -22 c10 -9 18 -24 18 -34 0 -23 -42 -51 -64
-43 -36 14 -27 94 11 94 9 0 25 -7 35 -17z m369 -350 c120 -107 409 -410 409
-429 0 -7 -8 -17 -17 -23 -15 -7 -60 32 -260 228 -134 130 -243 244 -243 252
0 47 37 37 111 -28z m-4411 9 c22 -28 26 -52 8 -52 -16 0 -48 30 -48 45 0 7
-10 15 -22 19 -18 5 -20 8 -9 15 20 13 49 2 71 -27z m-109 -31 c34 -34 37 -56
10 -70 -16 -9 -23 -4 -46 29 -15 21 -34 41 -43 45 -14 5 -14 7 -2 15 26 17 51
11 81 -19z m1096 -17 c-3 -3 -12 -4 -19 -1 -8 3 -5 6 6 6 11 1 17 -2 13 -5z
m-1227 -21 c37 -26 59 -55 60 -80 0 -34 -15 -35 -39 -2 -12 16 -40 41 -61 55
-22 15 -37 30 -34 35 9 15 48 10 74 -8z m1799 7 c253 -26 479 -120 668 -279
74 -61 126 -128 181 -231 37 -68 78 -180 66 -180 -2 0 -15 24 -28 54 -56 125
-178 271 -300 357 -38 27 -73 49 -78 49 -12 0 -10 -19 5 -36 6 -8 17 -20 22
-27 15 -18 36 -69 31 -74 -3 -3 -48 13 -101 36 -52 22 -114 44 -138 47 -57 8
-150 34 -161 45 -21 19 93 7 202 -21 28 -7 31 -6 22 5 -19 23 -102 75 -119 75
-9 -1 1 -10 21 -20 40 -22 65 -49 32 -36 -103 41 -413 74 -576 61 -88 -6 -269
-45 -333 -71 -22 -9 -56 -23 -75 -31 -19 -8 -43 -18 -52 -23 -10 -6 -29 -10
-43 -10 -14 0 -39 -7 -56 -15 -16 -9 -33 -14 -38 -11 -4 3 -37 -15 -72 -39
-70 -49 -79 -52 -79 -30 0 8 37 44 83 80 45 36 96 77 112 91 29 26 29 26 5 19
-56 -16 -146 -75 -247 -163 -79 -67 -82 -50 -6 29 107 112 246 200 428 273
192 75 392 99 624 76z m-1905 -65 c11 -8 14 -15 7 -15 -7 0 -9 -4 -6 -10 8
-13 -1 -13 -44 2 -47 16 -48 17 -31 28 22 14 52 12 74 -5z m3846 -37 c66 -15
221 -92 253 -125 l27 -29 -87 30 c-80 27 -99 30 -208 28 -68 -1 -148 -8 -185
-17 -51 -12 -55 -14 -20 -10 128 14 260 18 260 7 0 -6 -21 -14 -47 -17 -27 -4
-79 -13 -118 -21 -38 -8 -137 -28 -218 -44 -82 -16 -152 -32 -158 -35 -5 -4
-9 -1 -9 4 0 6 7 11 15 11 8 0 15 4 15 8 0 14 -136 -16 -182 -39 -56 -29 -38
-6 46 58 33 25 60 50 58 55 -1 6 5 16 15 24 10 7 15 14 12 14 -20 1 -126 -38
-192 -71 -123 -61 -131 -47 -17 27 199 128 527 191 740 142z m-3920 -65 c32
-22 40 -33 40 -60 0 -29 -3 -29 -33 1 -14 14 -43 30 -66 37 -36 11 -39 13 -23
25 23 18 53 17 82 -3z m3990 -53 c0 -5 -4 -10 -10 -10 -5 0 -10 5 -10 10 0 6
5 10 10 10 6 0 10 -4 10 -10z m-4026 -31 c14 -11 26 -29 26 -40 0 -24 -6 -24
-37 1 -14 11 -36 20 -49 20 -26 0 -27 1 -18 24 9 22 46 20 78 -5z m2121 -59
c136 -25 316 -100 459 -193 91 -60 279 -240 362 -346 88 -113 95 -119 249
-195 131 -65 157 -73 89 -29 -36 24 59 -19 100 -44 147 -92 331 -326 389 -493
33 -95 51 -201 43 -245 -9 -45 -17 -44 -37 3 -16 37 -16 37 -11 -50 6 -111
-11 -161 -75 -217 -51 -46 -157 -90 -277 -116 -176 -39 -677 11 -1010 100
-408 108 -571 158 -588 176 -12 14 -18 16 -21 7 -4 -9 -8 -10 -14 -2 -4 6 -41
21 -81 34 -80 25 -103 42 -46 33 25 -4 35 -3 31 4 -4 7 11 13 40 18 85 12 16
28 -256 56 -132 14 -361 6 -463 -15 -98 -21 -264 -91 -333 -141 -33 -24 -82
-66 -110 -94 -27 -28 -55 -51 -61 -51 -7 0 -15 -6 -17 -12 -4 -8 -6 -7 -6 3
-1 11 -14 19 -37 24 -57 10 -84 26 -84 49 0 22 19 98 64 256 15 52 32 113 37
135 6 22 20 63 31 90 11 28 38 101 59 163 66 195 132 300 211 339 88 44 87 45
81 -45 -7 -97 11 -163 67 -249 51 -79 120 -134 235 -189 226 -108 409 -149
660 -148 212 1 295 21 525 126 69 32 137 49 110 28 -21 -16 -276 -141 -332
-163 -32 -13 -45 -23 -41 -32 3 -10 14 -12 36 -8 64 12 193 54 244 79 148 72
313 210 423 354 32 41 67 83 78 93 19 18 19 15 -4 -45 -56 -142 -76 -187 -108
-235 -27 -41 -30 -49 -15 -46 10 3 17 9 14 13 -3 4 2 13 10 20 12 10 15 10 15
0 0 -15 54 39 87 85 12 17 26 58 33 91 33 167 142 246 276 200 26 -9 49 -14
51 -12 3 2 -6 7 -19 11 -13 4 -54 25 -91 47 -56 34 -79 42 -136 46 -50 3 -75
0 -99 -12 -18 -9 -32 -13 -32 -9 0 4 -6 -1 -13 -12 -8 -10 -19 -15 -25 -11 -6
3 -14 1 -18 -5 -4 -8 -3 -9 4 -5 7 4 12 5 12 3 0 -7 -183 -133 -240 -165 -106
-59 -300 -124 -430 -142 -129 -19 -312 -13 -419 13 -53 13 -97 29 -99 37 -3 9
1 11 14 5 31 -12 96 -24 134 -24 28 1 23 3 -25 14 -156 34 -334 135 -459 261
-36 35 -10 0 38 -53 24 -27 27 -33 12 -33 -9 0 -14 5 -11 10 3 6 -1 10 -9 10
-8 0 -48 37 -87 83 -40 45 -80 87 -88 94 -9 6 -14 14 -11 17 4 3 17 -5 31 -18
13 -12 38 -31 54 -41 l30 -19 -25 30 c-78 92 -124 124 -212 149 l-53 15 62 -5
c99 -8 125 -24 267 -169 184 -188 291 -254 470 -291 96 -19 318 -22 431 -5
166 25 345 95 518 204 58 37 125 75 149 86 52 24 136 26 203 5 27 -8 50 -13
51 -12 1 1 -26 26 -62 55 -38 31 -64 60 -64 71 0 11 -5 23 -10 26 -6 3 -36 39
-67 78 -79 99 -138 157 -164 162 -19 4 -39 18 -84 59 -6 5 -5 6 4 1 10 -5 12
-4 7 4 -4 6 -11 9 -16 6 -5 -3 -44 12 -87 33 -360 181 -717 197 -1048 47 -171
-78 -256 -113 -290 -120 -22 -5 -46 -9 -52 -11 -20 -4 -15 14 6 21 20 6 69 45
57 45 -4 0 -16 -5 -27 -10 -40 -22 -16 -1 54 47 190 130 359 198 557 223 76
10 240 5 325 -10z m-2150 -26 c20 -31 15 -40 -15 -24 -12 6 -35 12 -52 12
l-30 1 23 18 c33 26 54 23 74 -7z m4312 -13 c28 -12 60 -32 72 -44 22 -25 55
-96 47 -104 -3 -3 -21 8 -41 26 -79 69 -104 76 -270 76 -112 0 -167 -5 -215
-18 -112 -31 -250 -87 -399 -164 -122 -63 -141 -70 -127 -48 9 14 14 25 12 25
-2 0 14 18 37 41 84 82 299 188 445 220 129 28 366 22 439 -10z m-3879 -171
c-37 -110 -64 -180 -72 -180 -8 0 -30 -29 -51 -64 -44 -76 -150 -196 -173
-196 -11 0 -7 8 15 30 17 17 83 131 148 254 102 196 181 336 189 336 1 0 -24
-81 -56 -180z m-658 118 c0 -15 -25 -47 -73 -93 -175 -168 -386 -417 -513
-605 -77 -113 -171 -265 -198 -317 l-17 -33 276 0 c238 0 275 -2 275 -15 0
-13 -38 -15 -285 -15 l-286 0 -33 -74 c-60 -131 -96 -116 273 -116 313 0 361
-5 320 -31 -8 -5 -160 -9 -339 -8 l-325 1 -27 -66 -27 -66 375 0 c206 0 374
-2 374 -4 0 -2 3 -12 6 -21 6 -14 -28 -16 -382 -15 l-389 1 -18 -58 c-9 -32
-20 -66 -23 -75 -5 -17 20 -18 430 -18 240 0 436 -3 436 -7 -1 -31 -18 -33
-450 -35 l-433 -3 -18 -65 c-10 -36 -18 -68 -19 -72 0 -5 194 -8 431 -8 340 0
430 -3 427 -12 -4 -10 -102 -14 -436 -16 l-432 -2 -5 -23 c-12 -53 -25 -112
-25 -117 0 -3 198 -4 440 -2 416 2 440 2 440 -15 -1 -47 9 -46 -453 -41 l-435
4 -11 -67 c-6 -37 -11 -78 -11 -90 l0 -22 297 6 c164 4 364 4 445 0 135 -6
148 -8 148 -25 0 -17 -19 -18 -449 -18 l-449 0 -6 -22 c-3 -13 -6 -42 -6 -65
l0 -43 455 0 455 0 0 -25 0 -25 -460 0 -460 0 0 -95 0 -95 460 0 460 0 0 -25
0 -25 -460 0 -461 0 3 -92 3 -93 455 -5 455 -5 -32 -22 c-31 -23 -32 -23 -452
-23 l-421 0 1 -32 c0 -18 4 -53 7 -78 l7 -45 313 -5 314 -5 -26 -28 -26 -29
-283 3 c-168 1 -282 -1 -282 -7 0 -5 4 -35 8 -66 l8 -58 231 0 c206 0 229 -2
224 -16 -3 -9 -6 -20 -6 -25 0 -5 -91 -9 -215 -9 -144 0 -215 -3 -215 -11 0
-5 7 -41 16 -80 l16 -69 139 0 c78 0 139 -4 139 -9 0 -41 -1 -41 -274 -41
-264 0 -292 4 -279 36 4 11 30 14 109 14 57 0 104 1 104 3 0 9 -32 152 -34
155 -2 2 -46 4 -97 5 -87 2 -94 4 -94 22 0 18 7 20 87 21 49 0 90 2 92 5 2 2
-2 33 -8 69 l-12 65 -94 5 c-76 4 -95 8 -95 20 0 12 18 16 93 18 l94 3 -7 67
c-11 120 -2 111 -108 114 -74 2 -92 6 -92 18 0 12 18 16 93 18 l92 3 0 32 c0
18 -3 62 -6 99 l-7 67 -91 3 c-73 2 -91 6 -91 18 0 12 18 16 93 18 l92 3 0 33
c0 18 3 61 6 95 l7 61 -77 0 c-77 0 -122 12 -111 31 4 5 46 9 94 9 l88 0 7 38
c3 20 6 52 6 70 l0 32 -64 0 c-73 0 -96 6 -96 26 0 11 19 14 84 14 l84 0 12
73 c6 39 14 80 16 90 5 15 -2 17 -53 17 -32 0 -64 4 -72 9 -28 18 1 31 69 31
l68 0 11 50 c19 88 16 100 -24 100 -25 0 -35 4 -35 16 0 12 9 15 42 13 l42 -4
18 70 c10 39 18 75 18 82 0 7 -19 13 -47 15 -27 2 -48 8 -51 16 -3 10 9 13 54
11 l58 -3 23 75 c13 41 23 77 23 82 0 4 -18 7 -40 7 -22 0 -40 5 -40 10 0 6
23 10 50 10 28 0 50 4 50 10 0 27 153 353 227 485 139 244 275 434 469 655
112 127 307 320 323 320 6 0 11 -10 11 -22z m218 -4 c32 -22 27 -34 -15 -34
-47 0 -66 11 -57 33 8 21 43 22 72 1z m4625 -111 c144 -154 284 -318 381 -448
152 -202 356 -566 447 -797 l34 -88 52 0 c42 0 51 -3 47 -15 -4 -10 -20 -15
-45 -15 -21 0 -39 -3 -39 -7 0 -4 10 -37 22 -75 l22 -68 53 0 c40 0 53 -4 53
-15 0 -11 -12 -15 -45 -15 -25 0 -45 -3 -45 -7 0 -5 7 -41 17 -80 l17 -73 42
0 c44 0 66 -13 38 -24 -9 -3 -27 -6 -40 -6 -28 0 -29 -10 -13 -93 l12 -57 68
0 c62 0 69 -2 69 -20 0 -18 -7 -20 -61 -20 l-62 0 6 -74 c9 -100 12 -106 52
-99 49 8 125 -5 125 -22 0 -16 -62 -28 -117 -23 l-38 3 4 -65 c2 -36 5 -68 8
-72 2 -5 42 -8 89 -8 65 0 84 -3 84 -14 0 -20 -23 -26 -101 -26 l-69 0 0 -95
0 -95 64 0 c70 0 121 -14 111 -30 -3 -5 -44 -10 -91 -10 l-84 0 0 -62 c0 -35
-3 -80 -6 -100 l-7 -38 91 0 c50 0 93 -4 96 -8 13 -21 -15 -31 -94 -34 -96 -3
-91 1 -103 -115 l-7 -63 95 0 c79 0 95 -3 95 -15 0 -20 -8 -22 -111 -30 l-87
-7 -5 -31 c-3 -18 -9 -47 -13 -64 l-6 -33 81 0 c64 0 83 -3 88 -15 9 -25 -3
-30 -95 -35 l-86 -5 -16 -77 -16 -77 100 -3 c93 -3 101 -5 101 -23 0 -20 -7
-20 -710 -20 l-710 0 -3 23 -3 22 581 0 c455 0 582 3 585 13 3 6 6 26 8 42 2
17 6 35 9 40 3 6 8 22 12 37 l6 28 -651 2 -652 3 -15 23 -14 22 670 0 670 0 6
28 c3 15 8 44 12 65 l6 37 -726 0 -726 0 -21 21 c-17 17 -19 23 -8 30 8 5 346
9 751 9 693 0 737 1 742 18 2 9 8 45 11 80 l7 62 -816 0 c-523 0 -816 3 -816
10 0 5 13 16 30 25 25 13 130 15 820 15 l790 0 0 95 0 95 -657 0 c-362 0 -675
3 -696 6 -36 6 -37 8 -21 25 16 18 46 19 696 19 l678 0 0 95 0 95 -580 0
c-319 0 -580 3 -580 7 0 3 7 15 17 25 15 17 46 18 581 18 l564 0 -7 58 c-4 31
-9 60 -12 65 -2 4 -242 7 -533 7 -291 0 -531 4 -534 8 -2 4 -1 14 4 22 8 13
84 15 535 13 l525 -2 0 22 c-1 12 -6 51 -13 87 l-12 65 -504 3 c-278 1 -506 4
-508 6 -2 2 4 13 14 25 l18 22 488 -3 c485 -3 488 -3 483 17 -3 11 -10 44 -16
73 l-12 52 -449 0 c-392 0 -449 2 -449 15 0 13 56 15 446 15 419 0 445 1 440
18 -2 9 -12 43 -20 74 l-16 58 -438 2 c-407 3 -437 4 -440 21 -3 16 23 17 433
17 414 0 436 1 431 18 -3 10 -16 44 -28 75 l-23 58 -462 -1 c-459 0 -463 0
-463 20 0 20 3 20 455 18 250 -2 455 0 455 4 0 4 -12 37 -26 73 l-26 65 -442
0 c-390 -1 -441 1 -444 15 -3 13 45 15 432 15 240 0 436 3 435 8 0 4 -19 47
-42 95 l-42 88 -446 -1 c-391 0 -447 2 -453 15 -5 13 45 15 434 15 323 0 440
3 440 11 0 17 -169 291 -243 395 -62 87 -223 283 -369 449 -43 48 -78 93 -78
100 0 8 -3 20 -6 29 -13 34 18 13 79 -51z m-4578 -78 c9 -144 33 -395 41 -434
6 -28 4 -33 -11 -30 -11 3 -26 25 -39 61 -12 32 -29 63 -38 70 -10 8 -20 41
-26 88 -29 206 -36 247 -54 272 -18 27 -24 59 -11 72 4 3 35 6 69 4 l62 -2 7
-101z m4298 77 c83 -55 132 -205 107 -328 -13 -64 -51 -143 -83 -171 -19 -18
-20 -17 -14 7 3 14 15 57 27 95 37 121 14 277 -55 379 -27 40 -23 44 18 18z
m-433 -30 c-58 -40 -81 -67 -111 -128 -26 -52 -33 -82 -37 -145 -3 -43 -2 -79
2 -79 4 0 32 13 64 29 31 15 75 34 97 41 22 7 68 26 103 41 34 16 62 26 62 23
0 -5 -87 -46 -235 -112 -94 -41 -93 -40 -56 -116 50 -102 120 -146 230 -146
104 0 195 63 261 180 17 30 28 44 24 30 -13 -52 -60 -123 -106 -165 -58 -52
-119 -69 -224 -63 -89 6 -134 32 -192 110 -57 76 -74 143 -61 238 17 128 71
219 152 259 50 25 61 26 27 3z m-1555 -27 c37 -14 100 -42 139 -61 81 -40 231
-148 232 -167 0 -6 8 -26 17 -44 20 -37 21 -86 4 -125 -16 -36 -96 -97 -198
-154 -46 -25 -77 -44 -69 -41 8 2 26 7 40 11 22 6 23 6 6 -5 -46 -29 -343
-115 -367 -107 -6 2 10 21 36 43 62 50 120 141 146 227 31 101 24 257 -16 348
-16 36 -35 73 -43 83 -20 23 -7 22 73 -8z m-670 -17 c-51 -34 -99 -99 -115
-158 -12 -41 -13 -190 -2 -190 14 0 160 49 281 94 68 25 126 44 129 41 6 -5
-61 -35 -168 -75 -158 -59 -235 -98 -232 -117 7 -33 53 -102 94 -138 69 -63
118 -80 233 -80 89 0 107 3 162 29 75 34 144 104 178 179 14 30 24 43 24 32 1
-69 -105 -197 -198 -239 -188 -84 -436 0 -519 177 -17 37 -27 47 -46 47 -14 0
-31 3 -40 6 -10 4 -16 1 -16 -9 0 -27 62 -132 104 -176 l41 -43 -42 27 c-24
15 -43 34 -43 42 0 8 -4 11 -10 8 -15 -9 -113 88 -182 180 -69 91 -76 105 -54
105 9 0 16 4 16 9 0 5 8 11 18 14 11 2 21 14 25 25 4 19 3 20 -16 10 -50 -26
8 24 89 78 111 72 120 76 95 33 -27 -46 -51 -142 -51 -206 0 -56 18 -78 61
-71 19 3 21 11 23 94 4 144 53 232 161 288 51 27 51 18 0 -16z m2031 -45 c-42
-64 -59 -145 -53 -243 7 -100 26 -160 68 -213 17 -21 29 -40 26 -43 -7 -7
-169 60 -292 121 -60 31 -103 54 -95 52 8 -3 26 -7 40 -11 23 -6 23 -5 6 6
-26 18 -74 61 -58 53 6 -3 12 -1 12 6 0 7 -10 9 -30 6 -16 -4 -30 -2 -30 2 0
17 104 124 169 172 38 29 75 49 90 49 14 0 57 20 96 45 38 24 71 42 73 40 2
-2 -8 -20 -22 -42z m524 32 c47 -24 73 -77 67 -138 -10 -106 -100 -130 -167
-44 -49 62 -9 195 58 197 7 0 26 -7 42 -15z m-2053 -39 c33 -30 37 -39 41 -94
4 -55 2 -63 -21 -86 -31 -31 -99 -36 -135 -10 -88 61 -55 224 45 224 24 0 44
-10 70 -34z m-2262 -95 c5 -70 4 -102 -3 -97 -5 3 -13 34 -17 68 -4 35 -10 80
-15 100 -5 25 -4 38 4 41 20 8 24 -6 31 -112z m2857 -126 c11 -21 8 -18 -32
30 -24 29 -24 29 -2 10 13 -11 28 -29 34 -40z m2866 -21 c2 -14 1 -16 -6 -5
-8 11 -10 11 -15 0 -3 -8 -6 -4 -6 9 -1 28 23 25 27 -4z m-2848 -70 c0 -22
-16 -17 -17 6 -1 11 2 18 8 15 5 -4 9 -13 9 -21z m540 6 c8 -5 11 -10 5 -10
-5 0 -17 5 -25 10 -8 5 -10 10 -5 10 6 0 17 -5 25 -10z m-3370 -50 c0 -29 -4
-40 -15 -40 -11 0 -15 11 -15 40 0 29 4 40 15 40 11 0 15 -11 15 -40z m790 11
c0 -5 -17 -12 -37 -15 -21 -4 -51 -9 -68 -13 -39 -7 -27 5 22 22 44 16 83 19
83 6z m-620 -129 c14 -8 30 -23 37 -31 17 -22 53 -130 53 -159 0 -21 -2 -23
-15 -12 -9 7 -17 11 -19 9 -2 -2 3 -41 11 -87 9 -54 21 -90 34 -103 19 -19 26
-73 10 -83 -5 -3 -12 -27 -16 -52 -3 -25 -15 -60 -26 -77 l-19 -31 6 114 c12
235 -35 402 -139 496 l-52 47 55 -8 c30 -4 66 -14 80 -23z m3489 -37 c152 -63
366 -90 500 -61 76 16 192 64 223 93 20 18 23 11 8 -17 -27 -50 -159 -112
-279 -130 -127 -20 -375 36 -516 117 -132 75 -118 75 64 -2z m-3641 41 c59
-31 119 -132 129 -217 8 -71 -9 -61 -47 27 -19 42 -46 93 -62 115 -70 97 -177
90 -263 -18 -56 -70 -57 -71 -44 -33 15 45 44 77 94 103 73 37 148 46 193 23z
m358 -7 c21 -17 63 -147 70 -212 6 -63 6 -64 -17 -61 -13 1 -26 3 -29 5 -3 1
-18 2 -35 3 -24 1 -31 6 -33 26 -9 69 -55 192 -85 227 l-32 36 75 -7 c41 -4
80 -12 86 -17z m2464 -63 c0 -2 -8 -10 -17 -17 -16 -13 -17 -12 -4 4 13 16 21
21 21 13z m-2933 -36 c49 0 133 -141 132 -220 l0 -45 -23 65 c-42 122 -70 151
-150 158 -52 4 -55 3 -95 -38 -94 -97 -116 -338 -43 -475 28 -52 73 -84 123
-85 33 0 93 52 119 105 18 35 19 36 14 10 -11 -49 -43 -94 -88 -120 -50 -29
-72 -31 -123 -10 -77 32 -113 127 -113 299 0 155 23 227 95 302 50 51 80 65
120 58 11 -2 25 -4 32 -4z m1176 -74 c21 -29 61 -79 88 -110 55 -61 56 -66 8
-37 -48 30 -149 162 -149 196 0 16 19 -2 53 -49z m1677 39 c0 -8 -145 -102
-205 -132 -152 -77 -378 -124 -580 -121 l-130 2 105 6 105 6 -75 3 c-73 4 -71
4 45 12 66 5 156 16 199 25 86 17 331 98 356 117 13 10 13 10 1 -5 -7 -10 -9
-18 -3 -18 15 0 33 26 24 36 -4 4 2 2 12 -6 18 -13 19 -13 14 2 -4 10 -1 19 8
22 8 3 14 0 14 -7 0 -7 7 -3 16 8 8 11 17 19 19 18 3 -2 11 -3 18 -3 8 0 7 4
-3 11 -13 9 -13 10 2 6 9 -3 24 1 35 8 20 16 23 17 23 10z m1581 -24 c-29 -54
-191 -175 -209 -156 -12 12 185 175 211 175 4 0 3 -8 -2 -19z m-2702 -55 c10
-12 8 -13 -8 -9 -12 3 -21 9 -21 14 0 14 16 11 29 -5z m2548 -10 c-51 -39
-256 -46 -342 -12 l-40 16 40 -6 c140 -22 264 -20 328 6 31 12 35 11 14 -4z
m-4277 -86 c16 -9 40 -58 40 -83 0 -5 -14 10 -32 34 -17 24 -36 47 -42 51 -17
12 12 10 34 -2z m455 -9 c3 -5 1 -12 -5 -16 -5 -3 -10 1 -10 9 0 18 6 21 15 7z
m-1445 -31 c0 -5 -9 -10 -20 -10 -11 0 -20 5 -20 10 0 6 9 10 20 10 11 0 20
-4 20 -10z m5384 -53 c57 -90 107 -205 119 -272 11 -66 -1 -155 -26 -189 -10
-13 -12 -5 -13 47 -2 80 -33 183 -90 300 -40 84 -54 143 -37 160 10 11 10 10
47 -46z m-2471 26 c-7 -2 -19 -2 -25 0 -7 3 -2 5 12 5 14 0 19 -2 13 -5z
m-1413 -89 c0 -34 -2 -36 -26 -31 -14 2 -27 0 -29 -7 -1 -6 -13 -60 -25 -121
-13 -60 -32 -129 -42 -153 -22 -54 -22 -59 0 -65 11 -3 7 -5 -10 -6 -27 -1
-47 14 -28 21 18 6 81 238 87 321 l6 77 33 0 c32 0 34 -2 34 -36z m-20 -70 c0
-9 -5 -14 -12 -12 -18 6 -21 28 -4 28 9 0 16 -7 16 -16z m-475 -42 c-10 -10
-16 -12 -13 -7 3 6 8 19 13 30 5 14 9 16 12 7 3 -8 -3 -21 -12 -30z m6442 -14
c18 -14 16 -69 -3 -96 -30 -44 -124 -18 -124 34 0 69 75 105 127 62z m-6627
-179 c0 -6 -4 -7 -10 -4 -5 3 -10 11 -10 16 0 6 5 7 10 4 6 -3 10 -11 10 -16z
m460 -59 c11 -7 4 -10 -25 -10 -29 0 -36 3 -25 10 8 5 20 10 25 10 6 0 17 -5
25 -10z m1265 -42 c66 -16 230 -62 365 -102 568 -172 822 -224 1244 -257 189
-15 604 -6 738 15 292 46 490 127 611 249 76 77 72 78 119 -8 35 -62 32 -174
-5 -237 -50 -86 -146 -146 -304 -189 -41 -11 -76 -19 -79 -17 -2 3 35 19 82
38 152 59 248 136 272 218 17 55 -2 152 -28 152 -6 0 -10 -6 -10 -14 0 -9 -7
-12 -19 -9 -12 3 -34 -6 -58 -25 -206 -165 -591 -255 -1071 -251 -119 1 -255
6 -302 10 -186 19 -294 27 -307 22 -20 -8 -16 -33 10 -54 17 -14 18 -18 6 -19
-32 0 -206 29 -291 49 -49 12 -127 30 -175 41 -84 20 -272 78 -583 180 -276
91 -333 104 -455 104 -92 0 -122 -4 -182 -25 -48 -17 -73 -21 -73 -14 0 15 29
48 55 63 19 11 19 11 1 12 -58 1 -184 -108 -224 -192 -19 -41 -19 -41 -26 -14
-14 55 67 176 154 231 45 28 141 64 205 75 74 13 195 1 330 -32z m-1625 -87
c0 -42 20 -105 38 -119 15 -12 15 -13 -7 -10 -20 2 -27 15 -46 78 -12 41 -26
83 -30 94 -8 18 -7 18 18 1 18 -11 27 -26 27 -44z m257 -13 l-2 -63 38 -3 c24
-2 37 -8 34 -15 -5 -15 -117 -22 -117 -8 0 12 43 151 46 151 1 0 2 -28 1 -62z
m-355 -44 c-12 -182 74 -323 281 -462 220 -149 611 -333 1107 -524 187 -71
290 -118 290 -130 0 -5 -8 -7 -17 -4 -18 5 -76 9 -100 7 -9 -1 -13 -27 -14
-93 -1 -112 -10 -188 -24 -191 -5 -1 -14 25 -20 57 -8 47 -15 61 -32 67 -21 8
-23 5 -29 -41 -13 -99 -34 -42 -34 94 l0 81 -98 43 c-54 23 -104 42 -111 42
-10 0 -12 -45 -6 -232 4 -128 10 -236 14 -239 3 -4 24 -12 46 -19 87 -27 186
-73 196 -91 7 -13 7 -25 0 -37 -9 -15 -10 -13 -11 9 0 25 -7 29 -102 59 -57
18 -120 41 -140 51 l-38 19 0 82 c0 73 -14 191 -28 228 -3 8 -4 25 -3 38 1 12
-3 22 -9 22 -6 0 -8 5 -5 11 10 15 -25 49 -50 49 -24 0 -50 -24 -42 -38 3 -4
2 -14 -3 -22 -6 -9 -3 -18 8 -26 46 -34 -36 -24 -112 14 -16 8 -49 15 -75 16
-25 2 -79 17 -120 35 -41 18 -84 34 -96 36 -27 2 -225 111 -263 143 -25 21
-23 21 18 -3 86 -50 182 -96 174 -84 -5 9 -1 10 12 6 61 -19 118 -41 185 -73
113 -54 137 -41 151 80 3 27 -1 30 -106 77 -60 28 -117 48 -125 47 -9 -2 -27
6 -40 19 -14 12 -45 33 -70 46 -71 37 -210 124 -271 170 -83 61 -171 139 -165
145 2 3 13 -2 22 -10 10 -9 29 -21 42 -28 26 -14 23 -2 -11 35 -72 78 -125
155 -106 155 6 0 0 13 -15 28 -15 15 -27 32 -27 38 0 5 -9 17 -20 27 -11 9
-20 28 -20 41 0 14 -5 28 -11 31 -7 5 -9 -24 -5 -96 3 -57 8 -165 11 -239 l6
-135 -31 52 -30 52 0 204 c0 173 3 215 21 282 19 76 44 145 51 145 2 0 2 -30
0 -66z m1035 -186 c-3 -8 -6 -5 -6 6 -1 11 2 17 5 13 3 -3 4 -12 1 -19z m-707
-18 c0 -11 -8 -15 -55 -24 l-30 -6 24 20 c25 21 61 27 61 10z m1480 -37 c325
-121 400 -146 605 -203 207 -58 515 -113 725 -130 92 -8 304 -11 583 -8 240 1
437 0 437 -4 0 -21 -142 -33 -595 -54 -143 -6 -475 8 -620 27 -185 24 -480 86
-610 128 -132 43 -270 92 -323 115 -113 49 -268 109 -317 122 -27 8 -84 14
-125 14 -61 1 -71 3 -55 12 63 37 163 30 295 -19z m-783 5 c-3 -8 -6 -5 -6 6
-1 11 2 17 5 13 3 -3 4 -12 1 -19z m2646 -75 c-7 -2 -19 -2 -25 0 -7 3 -2 5
12 5 14 0 19 -2 13 -5z m1045 -136 c10 -50 10 -76 2 -107 -53 -198 -506 -310
-1253 -310 -229 0 -486 14 -562 31 -36 7 -34 8 17 4 629 -53 1242 -4 1557 124
140 57 181 110 181 234 0 71 11 101 35 94 5 -2 16 -33 23 -70z m-4383 53 c3
-5 1 -10 -4 -10 -6 0 -11 5 -11 10 0 6 2 10 4 10 3 0 8 -4 11 -10z m-351 -361
c3 -13 8 -87 11 -164 l6 -140 -31 31 -31 31 -6 169 -5 169 25 -36 c14 -20 28
-47 31 -60z m516 -136 c36 -20 69 -40 75 -44 5 -5 17 -9 27 -9 25 0 33 -25 18
-60 -12 -30 -12 -30 -41 -13 -36 22 -37 31 -1 35 24 3 17 9 -62 56 -101 61
-236 150 -236 157 0 3 35 -16 78 -41 42 -26 106 -62 142 -81z m2185 98 c26 -6
31 -9 15 -9 -14 -1 -43 3 -65 7 -26 6 -31 9 -15 9 14 1 43 -3 65 -7z m1762
-58 c-184 -239 -594 -474 -1007 -578 -217 -55 -518 -82 -705 -65 -107 10 -406
58 -414 66 -2 2 49 4 114 4 67 0 115 4 109 9 -5 4 -45 14 -89 21 -108 17 -131
33 -36 25 99 -9 500 6 446 16 -22 4 -96 9 -165 10 -269 3 -240 16 40 18 403 2
618 25 901 96 277 70 433 142 634 295 205 156 242 173 172 83z m2286 43 c70
-30 99 -101 68 -172 -54 -121 -209 -112 -251 15 -12 36 -11 44 11 88 36 73
101 99 172 69z m-3966 -2 c-3 -3 -12 -4 -19 -1 -8 3 -5 6 6 6 11 1 17 -2 13
-5z m76 -11 c-7 -2 -21 -2 -30 0 -10 3 -4 5 12 5 17 0 24 -2 18 -5z m-2352
-39 c17 -8 28 -18 25 -21 -3 -3 -20 4 -38 16 -39 24 -30 28 13 5z m329 -207
c0 -4 -21 4 -47 19 -71 40 -76 50 -10 18 31 -16 57 -32 57 -37z m-340 -63 c0
-7 -40 15 -102 58 -86 57 -70 55 22 -3 44 -28 80 -53 80 -55z m6242 -139 c-2
-49 -7 -105 -10 -124 -9 -40 -35 -62 -53 -44 -9 9 -9 36 0 115 17 142 19 150
45 146 20 -3 21 -8 18 -93z m-2561 -24 c62 -41 165 -150 244 -261 96 -134 211
-380 187 -401 -4 -3 -19 -9 -34 -13 -20 -4 -30 -1 -37 11 -6 10 -11 14 -11 9
0 -5 -8 -2 -17 5 -15 11 -16 11 -5 -1 18 -21 15 -30 -12 -30 -19 0 -35 15 -71
70 -51 77 -119 164 -174 224 -36 39 -31 40 21 4 63 -43 40 -11 -89 130 -47 51
-83 96 -79 99 3 3 44 -20 91 -53 47 -32 95 -66 107 -74 20 -14 20 -13 11 5 -6
11 -30 41 -52 67 -35 39 -38 45 -19 40 13 -3 39 -17 58 -31 27 -19 31 -21 19
-6 -41 52 -87 105 -140 161 -79 83 -79 97 2 45z m-3991 -22 c87 -14 219 -49
226 -60 3 -5 15 -9 27 -9 39 -1 223 -86 314 -145 95 -62 231 -194 288 -278 54
-80 41 -90 -22 -17 -89 102 -184 188 -232 211 -25 11 -57 34 -73 51 -22 24
-34 29 -53 24 -14 -4 -25 -12 -25 -20 0 -7 40 -40 88 -72 91 -61 222 -192 283
-282 24 -35 9 -23 -59 49 -251 265 -618 444 -944 460 -27 2 -54 7 -60 12 -8 5
33 6 102 3 139 -7 287 -41 417 -96 98 -42 132 -50 98 -24 -27 21 -114 61 -198
90 -167 57 -496 100 -541 71 -12 -8 -43 -17 -71 -22 -27 -4 -59 -12 -70 -17
-20 -11 -20 -11 -1 11 42 47 88 66 176 72 99 8 237 2 330 -12z m1320 11 c0 -5
-2 -10 -4 -10 -3 0 -8 5 -11 10 -3 6 -1 10 4 10 6 0 11 -4 11 -10z m2529 -188
l33 -28 -54 -55 c-116 -116 -195 -267 -228 -431 -15 -78 -28 -81 -17 -5 13 92
44 201 78 270 22 46 26 63 17 69 -16 10 -56 -36 -97 -112 -37 -66 -41 -46 -6
28 55 119 190 292 227 292 7 0 28 -13 47 -28z m-149 -17 c-7 -8 -16 -12 -21
-9 -13 8 -1 24 18 24 13 0 13 -3 3 -15z m-3745 -25 c95 -14 180 -42 304 -101
217 -103 326 -211 321 -318 -1 -20 -1 -39 0 -43 2 -5 4 -11 5 -15 1 -5 6 -23
10 -40 9 -39 13 -39 66 -12 39 20 41 20 55 2 21 -28 17 -40 -20 -62 -134 -83
-172 -252 -97 -433 52 -125 80 -160 185 -234 53 -37 96 -73 96 -81 0 -25 -37
-13 -105 35 -144 100 -206 175 -241 291 -17 60 -47 76 -75 42 -10 -12 -20 -22
-23 -21 -21 1 -26 -1 -21 -10 3 -6 -1 -7 -9 -4 -9 3 -16 2 -16 -4 0 -16 -50
-21 -65 -6 -8 8 -16 11 -19 6 -6 -9 8 -33 20 -35 5 -1 8 -5 7 -9 -2 -4 6 -10
17 -13 19 -6 28 -40 12 -47 -4 -1 -5 -16 -1 -33 4 -19 7 -23 8 -10 1 17 3 18
11 5 12 -19 13 -43 1 -36 -5 4 -7 -2 -4 -12 2 -10 14 -22 25 -27 11 -6 26 -28
34 -49 16 -50 27 -56 94 -56 65 0 95 14 68 31 -24 14 -23 24 5 36 18 9 34 4
87 -24 36 -20 75 -46 87 -59 12 -13 28 -24 35 -24 7 -1 -2 -14 -21 -30 -43
-36 -71 -79 -71 -107 0 -12 -22 -53 -48 -91 -44 -64 -49 -68 -60 -51 -7 10
-12 46 -12 79 0 34 -7 74 -14 89 -27 51 -111 112 -187 134 -15 5 -52 81 -134
282 -20 50 -43 102 -51 117 -8 14 -14 37 -14 50 0 41 -37 165 -68 231 -16 36
-47 84 -68 108 -22 23 -33 39 -25 34 9 -5 12 -4 7 3 -3 6 -26 21 -50 35 -51
29 -189 44 -246 27 -34 -10 -36 -9 -83 40 -26 29 -52 61 -58 72 -11 20 -9 19
22 -3 23 -16 48 -24 77 -24 38 0 48 5 83 42 47 51 51 90 14 139 -44 58 -142
69 -206 24 -34 -25 -69 -95 -69 -141 0 -19 15 -67 34 -106 l35 -72 -26 -16
c-39 -26 -80 -75 -114 -139 -57 -106 -50 -242 18 -368 33 -60 151 -175 189
-183 97 -22 99 -24 151 -92 91 -119 162 -185 245 -228 50 -26 78 -46 78 -57 0
-30 -15 -28 -86 14 -103 61 -146 99 -234 208 -77 95 -94 110 -128 110 -54 0
-95 24 -168 98 -108 109 -148 186 -174 335 -10 54 -17 67 -52 98 l-41 35 25
43 c14 24 28 39 32 33 3 -5 -1 -18 -9 -28 -20 -26 -18 -57 4 -71 16 -10 21 -5
47 50 16 34 29 67 29 73 0 6 6 19 14 28 9 10 10 16 2 16 -6 0 -11 12 -11 26 0
23 2 25 16 13 11 -9 9 0 -7 26 -15 28 -22 56 -21 90 0 28 -2 41 -5 30 -3 -11
-12 -29 -20 -40 -28 -37 -8 84 28 169 24 58 44 87 78 118 l46 40 -37 -15
c-150 -63 -272 -223 -330 -434 -29 -107 -32 -384 -5 -483 26 -94 55 -167 94
-231 18 -31 33 -69 33 -84 0 -34 22 -81 56 -120 15 -16 45 -55 67 -85 101
-136 279 -328 312 -336 11 -3 51 10 93 31 101 49 154 59 234 45 78 -14 177
-53 243 -95 74 -47 324 -275 302 -275 -5 0 -29 20 -55 43 -89 82 -276 227
-321 248 -74 35 -171 59 -237 59 -53 0 -74 -7 -161 -49 l-101 -49 -53 35 c-86
59 -300 292 -376 411 -40 61 -89 174 -126 287 -101 305 -84 621 45 867 43 84
159 200 231 233 102 47 190 64 337 64 74 0 167 -4 205 -9z m3705 -20 c0 -5 -7
-7 -15 -4 -8 4 -15 8 -15 10 0 2 7 4 15 4 8 0 15 -4 15 -10z m-35 -32 c2 -2
-3 -11 -10 -22 -13 -17 -15 -17 -36 -2 -37 26 -33 45 8 36 19 -5 36 -10 38
-12z m-90 -90 c28 -13 31 -21 12 -37 -11 -8 -19 -5 -35 12 -12 13 -19 27 -15
30 8 9 8 9 38 -5z m-1683 -28 c163 -53 452 -163 472 -179 10 -9 34 -40 53 -70
48 -74 201 -360 245 -456 34 -77 94 -272 85 -281 -2 -2 -17 29 -33 68 l-29 73
-5 -45 -5 -45 -35 47 c-19 26 -40 47 -47 48 -6 0 -19 10 -27 22 -20 28 -20 20
-1 -25 36 -87 10 -65 -46 39 -61 112 -204 327 -253 378 -45 47 -46 48 -20 11
34 -49 6 -28 -38 28 -30 37 -30 39 -7 27 l24 -13 -24 29 c-80 95 -148 147
-271 207 -69 33 -127 62 -129 64 -8 6 -17 103 -10 103 4 0 49 -14 101 -30z
m-2111 -60 c28 -16 23 -32 -6 -18 -14 6 -25 15 -25 20 0 11 7 10 31 -2z m3739
-25 c34 -37 17 -41 -22 -6 -22 20 -28 31 -17 31 8 0 26 -11 39 -25z m605 -65
c35 -47 39 -75 10 -68 -20 5 -105 119 -105 140 0 19 1 18 29 -1 16 -12 46 -44
66 -71z m-996 -15 c11 -11 99 -444 116 -575 9 -69 -10 -28 -30 65 -10 44 -28
112 -40 150 -24 74 -66 249 -72 300 -5 51 -62 75 -83 36 -18 -34 6 -71 45 -71
19 0 23 -14 48 -172 14 -95 26 -192 27 -216 0 -24 4 -113 10 -199 5 -85 7
-160 3 -166 -4 -6 -19 61 -34 148 -29 174 -68 335 -131 547 l-41 136 33 39 33
39 56 -29 c31 -16 58 -30 60 -32z m-485 -132 c80 -183 126 -307 126 -343 -1
-25 -1 -25 -16 -5 -15 19 -114 221 -114 232 0 11 -121 210 -140 231 -11 12
-27 22 -35 22 -8 0 -15 5 -15 10 0 6 28 10 63 10 l62 0 69 -157z m256 38 c0
-10 -3 -12 -10 -5 -5 5 -12 36 -15 69 l-5 60 15 -55 c8 -30 14 -62 15 -69z
m1086 -28 c14 -28 24 -60 22 -70 -2 -11 -23 18 -56 81 -28 54 -52 102 -52 105
1 15 63 -69 86 -116z m-916 53 c-13 -13 -35 7 -25 24 5 8 11 8 21 -1 10 -8 12
-15 4 -23z m-4004 9 c4 -8 1 -22 -6 -30 -11 -13 -45 -15 -214 -13 -199 3 -201
3 -204 25 -3 22 -1 22 135 26 76 1 171 4 211 5 57 2 74 -1 78 -13z m6819 3 c4
-3 4 -16 0 -27 -6 -21 -8 -21 -613 -21 -472 0 -615 3 -644 13 -43 15 -52 22
-45 34 6 10 1292 11 1302 1z m-4060 -30 c60 -13 79 -26 65 -43 -8 -9 -29 -6
-93 17 -130 46 -118 57 28 26z m1612 -58 c-3 -10 0 -21 7 -24 6 -3 -2 -3 -19
1 -36 7 -45 11 -45 23 0 7 15 13 54 19 4 0 6 -8 3 -19z m-2049 -16 c163 -33
379 -134 518 -242 92 -71 197 -179 255 -262 23 -33 12 -24 -41 33 -188 202
-418 344 -715 443 -138 45 -143 54 -17 28z m3220 -9 c10 -21 8 -22 -51 -24
-34 -1 -63 -4 -66 -6 -9 -9 -42 18 -37 30 3 9 0 12 -8 9 -8 -3 -17 0 -21 6 -5
8 20 10 83 9 82 -1 91 -3 100 -24z m-338 -13 c0 -5 -9 -17 -20 -27 -24 -22
-25 -34 -3 -50 14 -11 2 -20 -93 -66 -60 -29 -145 -74 -189 -100 -142 -82
-258 -140 -276 -137 -39 7 138 134 496 357 49 30 85 40 85 23z m110 -6 c6 -8
10 -25 8 -37 -4 -33 -56 -34 -64 -2 -4 13 -4 30 0 38 7 19 40 19 56 1z m-1575
-16 c-3 -5 -16 -10 -28 -10 -18 0 -19 2 -7 10 20 13 43 13 35 0z m975 5 c0 -3
-9 -24 -21 -46 -14 -28 -25 -39 -35 -35 -9 3 -27 6 -40 6 -22 0 -24 2 -13 23
22 42 42 57 76 57 18 0 33 -2 33 -5z m-4753 -31 c3 -8 1 -20 -5 -26 -11 -11
-272 -21 -304 -12 -17 5 -25 34 -12 46 3 4 75 7 160 7 132 1 155 -1 161 -15z
m6798 2 c9 -7 11 -16 6 -24 -7 -11 -99 -15 -473 -19 -422 -6 -468 -4 -516 11
-29 10 -52 22 -52 27 0 5 147 10 343 12 615 5 677 4 692 -7z m-5924 -18 c119
-35 200 -194 156 -301 -49 -115 -194 -178 -305 -131 -197 82 -185 366 18 429
57 17 83 18 131 3z m3998 -8 c52 -14 62 -30 19 -30 -21 1 -44 10 -63 26 -16
15 -22 24 -13 21 9 -3 35 -11 57 -17z m-1800 -57 c68 -69 181 -218 246 -326
58 -96 136 -270 170 -380 27 -90 28 -113 0 -40 -23 59 -96 216 -105 223 -21
17 -124 148 -173 221 -32 47 -106 141 -164 209 -98 114 -104 124 -87 137 32
23 54 14 113 -44z m751 43 c0 -8 -12 -17 -26 -20 -37 -10 -41 0 -7 18 35 19
33 19 33 2z m1934 -50 c33 -14 63 -63 53 -88 -3 -8 -8 -3 -15 12 -8 22 -15 25
-60 25 -40 0 -56 5 -76 24 -14 14 -26 28 -26 33 0 13 88 9 124 -6z m-295 -12
c-20 -24 -17 -101 5 -117 17 -12 10 -18 -85 -66 -57 -29 -164 -85 -237 -123
-149 -79 -141 -78 -224 -15 -26 20 -65 41 -87 48 -23 7 -41 15 -41 18 0 3 42
30 93 59 50 29 152 87 224 130 l133 77 116 2 c102 2 115 1 103 -13z m-3089
-39 c60 -24 136 -58 169 -75 34 -17 61 -27 61 -23 0 4 -19 24 -42 45 l-43 38
57 -24 c156 -67 374 -254 521 -449 78 -103 100 -143 43 -81 -55 62 -125 109
-192 129 -28 8 -127 53 -222 100 -140 69 -176 83 -192 75 -30 -16 -57 -12
-120 20 -62 31 -66 36 -51 58 5 9 0 23 -17 40 -20 22 -59 94 -100 185 -7 14
21 6 128 -38z m2330 35 c11 -7 9 -11 -13 -19 -16 -6 -34 -11 -41 -11 -14 0
-36 -20 -36 -32 0 -4 8 -8 18 -9 30 -1 -19 -18 -55 -18 -43 -1 -42 15 1 62 28
31 40 37 72 37 22 0 46 -4 54 -10z m-840 -34 c0 -16 -37 -32 -48 -21 -7 7 25
35 40 35 4 0 8 -6 8 -14z m1719 -5 c17 -11 5 -31 -19 -31 -24 0 -36 20 -19 31
8 5 16 9 19 9 3 0 11 -4 19 -9z m1745 -37 c21 -20 20 -43 -1 -66 -32 -36 -83
-17 -83 32 0 14 5 31 12 38 17 17 54 15 72 -4z m-2694 -32 c0 -5 -18 -14 -40
-21 -22 -6 -58 -29 -80 -50 -32 -30 -40 -34 -40 -19 0 10 18 36 40 58 33 33
47 40 80 40 22 0 40 -4 40 -8z m-725 -41 c-15 -13 -65 -23 -65 -12 0 12 18 19
50 20 14 1 20 -3 15 -8z m1961 -15 c16 -16 57 -86 50 -86 -12 0 -56 24 -56 30
0 4 -17 24 -37 45 l-38 37 35 -7 c19 -4 40 -12 46 -19z m-246 3 c47 -10 51
-13 45 -33 -17 -54 -16 -72 9 -109 l25 -37 -42 -27 c-58 -37 -286 -144 -379
-179 -50 -19 -76 -33 -73 -41 10 -28 -15 -11 -31 20 -9 17 -36 55 -60 84 -24
28 -44 55 -44 60 0 4 33 25 73 45 39 21 149 80 242 132 94 53 173 95 177 96 4
0 30 -5 58 -11z m-5628 -43 c16 -29 -6 -36 -129 -36 -98 0 -112 2 -115 18 -6
31 13 37 124 37 96 0 111 -2 120 -19z m5772 13 c14 -7 27 -18 30 -25 7 -18 -3
-44 -18 -44 -6 0 -21 -3 -32 -6 -18 -5 -24 0 -34 30 -17 54 1 69 54 45z m936
1 c12 -7 12 -13 4 -27 -10 -17 -36 -18 -312 -21 -294 -2 -301 -2 -312 18 -6
11 -8 25 -5 30 8 12 606 13 625 0z m-5639 -108 c-24 -46 -107 -119 -151 -132
-43 -12 -37 -4 13 18 54 25 107 77 132 131 10 24 21 39 23 33 2 -6 -6 -28 -17
-50z m859 -41 c41 -24 86 -51 100 -61 14 -9 44 -27 68 -40 44 -25 54 -40 25
-40 -53 0 -276 138 -305 188 -25 42 -22 47 10 20 15 -13 61 -43 102 -67z
m2003 72 c-18 -9 -36 -13 -40 -9 -11 10 18 26 47 25 24 0 23 -1 -7 -16z
m-1915 -66 c46 -33 55 -44 20 -26 -31 16 -138 91 -138 96 0 6 63 -32 118 -70z
m-1732 21 c55 -81 125 -164 169 -202 52 -43 85 -101 85 -148 0 -40 -5 -46 -51
-81 -52 -39 -54 -33 -3 17 49 50 53 69 24 125 -23 46 -67 85 -113 100 -20 7
-40 23 -48 39 -7 15 -33 58 -56 95 -37 58 -53 97 -39 97 2 0 16 -19 32 -42z
m1461 -39 c32 -52 72 -88 160 -148 70 -48 80 -58 65 -73 -11 -11 -137 70 -188
120 -31 31 -84 138 -83 167 0 20 0 20 9 0 4 -12 21 -41 37 -66z m2978 56 c149
-39 293 -138 351 -241 20 -35 34 -70 31 -76 -2 -7 -12 2 -21 21 -68 131 -283
264 -463 287 -29 4 -50 10 -47 15 8 14 84 11 149 -6z m1343 -20 c-3 -3 -9 2
-12 12 -6 14 -5 15 5 6 7 -7 10 -15 7 -18z m-113 -19 c91 -70 175 -185 161
-222 -9 -23 -23 -16 -23 11 0 51 -113 172 -147 159 -8 -3 -16 5 -20 19 -3 14
-9 32 -12 41 -9 23 4 20 41 -8z m-212 -23 c4 -3 -5 -15 -20 -25 -71 -48 -409
-206 -419 -195 -2 2 17 12 43 22 60 23 205 98 303 158 82 49 84 50 93 40z
m-5719 -20 c4 -9 2 -21 -3 -26 -12 -12 -158 -19 -165 -8 -3 4 -2 17 1 29 5 20
12 22 83 22 63 0 79 -3 84 -17z m3946 7 c-20 -13 -33 -13 -25 0 3 6 14 10 23
10 15 0 15 -2 2 -10z m2655 -15 c0 -19 -8 -20 -200 -25 -226 -6 -249 -3 -253
28 l-3 22 228 -2 c220 -3 228 -4 228 -23z m-1920 -18 c69 -22 146 -72 139 -91
-5 -12 -11 -11 -40 6 -50 29 -209 77 -281 85 -37 3 -60 10 -56 16 8 14 179 2
238 -16z m1085 -20 c0 -2 -10 -12 -22 -23 l-23 -19 19 23 c18 21 26 27 26 19z
m-3414 -38 c18 -11 38 -27 45 -36 11 -13 11 -15 1 -9 -7 4 -19 3 -26 -4 -11
-8 -25 -4 -62 20 -26 16 -54 30 -61 30 -7 0 -13 4 -13 9 0 26 66 20 116 -10z
m-931 -9 c-3 -5 -11 -10 -16 -10 -6 0 -7 5 -4 10 3 6 11 10 16 10 6 0 7 -4 4
-10z m1069 -11 c38 -22 47 -39 21 -39 -8 0 -15 -4 -15 -10 0 -17 -30 -11 -37
8 -3 9 -15 27 -26 40 l-20 22 21 0 c11 0 37 -9 56 -21z m1456 1 c0 -5 -5 -10
-11 -10 -5 0 -7 5 -4 10 3 6 8 10 11 10 2 0 4 -4 4 -10z m551 -26 c38 -8 69
-19 69 -23 0 -10 -106 -110 -191 -182 -36 -30 -159 -133 -275 -229 -115 -97
-360 -301 -544 -454 -184 -154 -339 -283 -344 -287 -5 -5 5 -15 24 -23 l34
-14 66 57 c36 32 97 84 136 117 130 107 481 405 821 697 185 158 343 287 351
287 16 0 83 -38 94 -54 7 -11 -38 -66 -152 -184 -41 -43 -64 -66 -51 -50 14
15 22 28 18 28 -3 0 -49 -49 -102 -110 -70 -79 -103 -110 -119 -110 -107 0
-197 -111 -174 -213 8 -36 6 -43 -30 -91 -58 -76 -191 -221 -374 -407 -161
-164 -164 -167 -213 -172 -55 -6 -41 -14 -188 110 -65 56 -101 78 -150 94 -54
17 -64 24 -60 40 5 18 -1 19 -81 19 -82 0 -87 1 -98 25 -6 14 -15 25 -20 25
-5 0 -7 8 -4 18 5 15 1 18 -16 17 -23 -1 -34 -25 -53 -110 -6 -27 -8 -28 -17
-11 -22 39 9 141 66 220 49 66 268 227 586 428 74 47 279 176 455 288 421 267
426 270 447 270 11 0 50 -7 89 -16z m-2264 -20 c15 -14 23 -23 16 -20 -7 4
-13 -3 -15 -16 -3 -22 -90 -82 -102 -71 -3 4 -6 -9 -6 -28 l0 -34 -20 33 c-11
18 -33 40 -50 50 -23 14 -27 21 -18 30 7 7 15 12 19 12 5 0 34 16 66 35 32 19
63 35 70 35 7 0 25 -12 40 -26z m3423 22 c0 -2 -7 -7 -16 -10 -8 -3 -12 -2 -9
4 6 10 25 14 25 6z m-87 -46 c-29 -17 -58 -30 -65 -30 -14 1 91 59 107 59 6 1
-13 -13 -42 -29z m-4033 -31 c0 -4 -11 -2 -24 4 -19 9 -22 15 -13 25 9 11 13
11 24 -4 7 -10 13 -21 13 -25z m1000 31 c0 -5 -15 -10 -32 -10 -25 0 -29 3
-18 10 20 13 50 13 50 0z m3961 -20 c14 -8 17 -15 10 -27 -8 -14 -24 -17 -106
-14 -88 2 -99 1 -120 -19 l-24 -22 -9 33 c-5 22 -4 38 2 46 14 15 219 18 247
3z m-6441 -15 c20 -24 2 -35 -55 -35 -39 0 -54 4 -59 16 -3 9 -4 20 0 25 9 15
100 11 114 -6z m6100 -92 c17 -41 29 -77 26 -80 -3 -3 -20 3 -38 14 -22 13
-38 35 -54 73 -20 51 -21 56 -5 77 14 20 17 20 28 6 7 -9 26 -49 43 -90z
m-3468 70 c14 -16 28 -45 31 -65 7 -45 -9 -51 -18 -7 -4 19 -21 40 -46 58 -21
16 -35 31 -32 35 14 13 40 5 65 -21z m2558 13 c0 -2 -7 -7 -16 -10 -8 -3 -12
-2 -9 4 6 10 25 14 25 6z m195 -21 c-27 -13 -63 -26 -80 -30 -16 -3 2 8 40 24
83 35 112 40 40 6z m-2875 -5 c26 -26 25 -35 -5 -38 -14 -1 -25 2 -25 6 0 4
-16 14 -35 21 -47 17 -44 31 5 31 27 0 47 -7 60 -20z m-1043 -1 c-14 -8 -22
-8 -30 0 -8 8 -3 11 19 11 25 -1 27 -2 11 -11z m-406 -36 c13 -16 12 -17 -3
-4 -17 13 -22 21 -14 21 2 0 10 -8 17 -17z m-319 -178 c28 -34 12 -21 -51 40
-51 50 -102 104 -113 120 -28 40 112 -96 164 -160z m1993 157 c-7 -8 -35 7
-35 18 0 6 7 6 20 -2 10 -7 17 -14 15 -16z m-763 -2 c49 -38 44 -56 -39 -139
l-77 -76 73 77 c69 74 80 98 44 98 -9 0 -24 7 -34 16 -17 15 -19 13 -39 -28
-42 -90 -114 -133 -144 -85 -16 24 -2 43 80 104 75 58 98 63 136 33z m891 -28
c20 -14 35 -27 33 -29 -2 -3 -25 -1 -51 2 -25 4 -44 10 -41 12 3 3 -2 19 -10
35 -15 29 -15 29 8 17 13 -7 40 -23 61 -37z m2387 44 c0 -3 -4 -8 -10 -11 -5
-3 -10 -1 -10 4 0 6 5 11 10 11 6 0 10 -2 10 -4z m1895 -25 c0 -34 -32 -52
-50 -28 -20 28 -8 59 24 55 20 -2 26 -9 26 -27z m-2371 -15 c14 -19 26 -38 26
-43 0 -8 -163 -205 -263 -317 l-59 -65 12 -54 c20 -86 10 -177 -23 -221 -34
-44 -95 -80 -165 -96 -40 -9 -57 -19 -74 -44 -13 -17 -63 -78 -113 -136 -50
-58 -113 -134 -140 -170 -48 -64 -136 -168 -199 -234 -17 -18 -59 -64 -93
-103 -55 -63 -60 -72 -49 -89 8 -11 41 -82 74 -159 33 -77 65 -141 71 -143 5
-2 23 9 40 25 l31 28 -63 140 c-54 120 -61 141 -45 141 13 0 32 -27 64 -91 26
-49 56 -105 67 -123 l20 -34 64 64 c93 91 311 365 447 562 64 92 116 165 116
162 0 -27 -204 -341 -325 -502 -155 -204 -275 -330 -408 -426 l-27 -20 -26 59
c-15 32 -58 125 -97 206 l-70 148 65 67 c137 142 310 343 496 574 99 122 104
127 152 137 112 24 174 82 186 174 9 64 -16 127 -68 171 l-40 34 84 90 c45 49
130 141 188 205 58 64 108 117 111 117 4 0 18 -15 33 -34z m-3664 -16 c30 -43
18 -37 -16 7 -15 20 -23 33 -16 29 6 -3 21 -20 32 -36z m1324 18 c8 -14 4 -24
-23 -52 -65 -67 -130 -83 -170 -41 -41 44 -43 26 -1 -26 41 -52 52 -104 31
-138 -6 -10 -9 -3 -8 21 1 43 -41 113 -78 130 -32 15 -31 19 8 42 149 86 216
104 241 64z m3521 -59 c69 -13 165 -59 182 -87 12 -19 9 -19 -45 5 -109 48
-209 79 -282 86 -20 2 -9 4 26 5 33 1 87 -3 119 -9z m-4580 -28 c82 -36 122
-125 96 -213 -7 -22 -11 -41 -9 -42 2 -1 16 -12 32 -24 16 -12 35 -22 42 -22
7 0 34 39 59 88 25 48 49 93 54 101 8 12 19 4 56 -36 29 -33 57 -54 78 -59 17
-3 41 -13 53 -21 26 -17 43 -1 24 22 -10 13 -8 15 12 15 14 0 27 -2 30 -5 3
-3 -8 -31 -25 -62 l-30 -55 21 -43 c33 -69 121 -124 200 -125 32 0 32 0 26
-40 -6 -33 -2 -47 20 -79 15 -21 49 -50 76 -65 52 -28 59 -31 62 -18 0 4 8 12
17 19 25 19 46 -15 85 -136 51 -163 62 -216 47 -248 -8 -18 -15 -23 -23 -15
-7 7 -28 -1 -71 -29 -33 -21 -65 -39 -70 -39 -5 0 -31 19 -56 41 -78 70 -701
693 -701 700 0 4 5 11 10 14 6 4 7 12 4 18 -4 7 -3 8 2 4 5 -5 9 -12 10 -15 1
-16 516 -522 525 -517 5 4 8 2 7 -3 -4 -13 164 -182 181 -182 7 0 38 14 68 31
46 26 54 35 51 57 -2 14 -8 27 -14 29 -7 2 -9 -8 -6 -26 3 -22 -1 -32 -18 -41
-27 -14 -37 -6 -20 15 11 13 9 23 -10 58 -13 23 -17 36 -9 30 18 -18 30 -16
23 2 -4 9 0 15 10 15 21 0 20 8 -5 75 -17 45 -24 55 -37 49 -43 -18 -90 -27
-114 -21 -14 4 -60 31 -101 61 -42 30 -78 52 -81 49 -2 -3 -15 2 -27 10 -11 9
-29 13 -38 9 -14 -5 -14 -4 -2 11 12 15 12 17 -1 12 -9 -4 -22 0 -29 8 -8 8
-24 19 -37 26 -12 6 -41 35 -63 64 -23 29 -46 52 -52 52 -6 0 -12 5 -14 12 -3
7 4 11 16 10 11 0 19 -6 18 -11 -1 -5 6 -12 16 -14 10 -2 -16 32 -57 75 l-76
78 -21 -22 -21 -21 21 -7 c18 -6 30 -25 15 -25 -12 0 -50 25 -78 51 -19 18
-34 25 -41 19 -13 -11 -29 -2 -44 28 -13 24 -3 29 19 10 8 -7 4 -1 -9 14 -18
21 -21 30 -12 46 15 28 14 86 -3 126 -22 52 -60 76 -123 76 -47 0 -59 -4 -83
-29 -36 -36 -46 -72 -31 -121 15 -50 43 -84 86 -104 43 -21 49 -52 8 -41 -38
9 -99 50 -119 80 -9 13 -18 51 -21 84 -3 33 -10 58 -14 55 -14 -8 -11 24 5 54
15 29 59 72 91 91 24 13 85 5 140 -18z m1635 -14 c22 -15 22 -16 -19 -15 -23
0 -44 5 -47 10 -3 5 -16 14 -28 19 -16 7 -10 8 25 6 26 -3 57 -11 69 -20z
m-159 -13 c27 -15 51 -36 55 -46 8 -25 6 -26 -38 -21 -28 4 -38 10 -42 29 -4
13 -12 24 -20 24 -17 0 -38 24 -29 33 11 11 23 8 74 -19z m3967 14 c-6 -18
-28 -21 -28 -4 0 9 7 16 16 16 9 0 14 -5 12 -12z m-4109 -27 c20 -11 43 -27
50 -35 12 -14 10 -16 -7 -16 -12 0 -24 5 -28 11 -3 6 -18 9 -33 6 -14 -3 -42
1 -61 10 -33 14 -34 15 -16 29 26 19 49 18 95 -5z m3235 -22 c75 -20 202 -76
194 -85 -3 -2 -30 6 -59 20 -55 24 -187 66 -269 85 l-45 10 55 -5 c30 -3 86
-14 124 -25z m-4130 -47 c41 5 38 -8 -4 -17 -43 -9 -100 27 -100 65 0 14 7 11
35 -17 29 -29 41 -35 69 -31z m-984 0 c0 -20 -4 -42 -8 -48 -4 -5 -52 -41
-106 -78 l-100 -67 -90 92 c-63 65 -70 74 -24 30 76 -70 72 -70 176 -18 74 37
132 89 132 118 0 11 5 17 10 14 6 -3 10 -23 10 -43z m2185 38 c18 -7 19 -8 3
-15 -21 -8 -48 0 -48 15 0 12 17 12 45 0z m115 0 c12 -8 11 -10 -7 -10 -13 0
-23 5 -23 10 0 13 11 13 30 0z m-943 -30 c2 0 3 -9 3 -19 0 -13 -11 -23 -33
-30 -18 -6 -40 -23 -49 -39 -9 -15 -38 -51 -65 -81 l-49 -54 -32 18 c-18 11
-32 24 -32 30 0 6 42 53 93 103 93 90 94 91 128 82 19 -6 35 -10 36 -10z m988
-10 c4 -6 -6 -10 -24 -10 -16 0 -33 5 -36 10 -4 6 6 10 24 10 16 0 33 -4 36
-10z m-564 -10 c10 -6 19 -16 19 -23 0 -17 -44 -63 -91 -94 -40 -26 -41 -26
-70 -9 -17 10 -37 15 -46 12 -12 -5 -8 -12 21 -34 42 -32 63 -84 47 -122 -9
-23 -10 -22 -10 14 -1 31 -8 45 -37 72 -19 19 -44 34 -55 34 -10 0 -19 3 -19
6 0 10 99 96 144 125 45 30 67 34 97 19z m122 3 c-7 -2 -19 -2 -25 0 -7 3 -2
5 12 5 14 0 19 -2 13 -5z m-1369 -19 c23 -23 4 -54 -34 -54 -20 0 -31 6 -35
20 -13 42 37 66 69 34z m4471 -29 c29 -39 32 -64 8 -64 -22 0 -113 -16 -208
-36 -72 -15 -293 -46 -323 -44 -35 1 67 30 193 55 151 29 202 47 110 39 -160
-14 -215 -16 -215 -7 0 5 45 17 101 27 55 10 102 21 104 25 2 3 -31 3 -73 -1
-219 -19 -218 -19 -187 -9 34 11 286 48 355 52 83 5 107 -2 135 -37z m-2497 6
c17 -17 32 -34 32 -39 0 -15 -34 -25 -38 -12 -3 7 -18 27 -34 46 -26 29 -28
34 -11 34 10 0 33 -13 51 -29z m-105 -5 c22 -17 22 -40 0 -57 -15 -12 -16 -12
-10 4 3 9 2 17 -3 17 -6 0 -10 -7 -10 -15 0 -10 -11 -3 -29 17 -16 18 -27 36
-25 40 8 13 57 9 77 -6z m-174 -7 c48 -17 24 -33 -38 -24 -28 4 -51 10 -51 14
0 23 38 27 89 10z m2990 -52 c29 -17 65 -38 78 -45 13 -8 29 -26 35 -40 11
-29 19 -242 9 -242 -3 0 -15 45 -25 100 -10 55 -22 100 -28 100 -7 0 -8 -12
-4 -32 4 -18 9 -59 13 -92 6 -54 5 -58 -13 -52 -14 4 -22 0 -29 -16 -11 -25
-40 -36 -102 -37 -24 -1 -43 -4 -43 -9 0 -4 -15 -8 -32 -9 -18 -2 -45 -3 -60
-4 -17 -2 -24 -7 -21 -16 3 -7 9 -11 13 -8 5 3 6 -4 3 -14 -7 -27 19 -37 108
-40 60 -2 80 1 93 14 9 9 16 21 16 26 0 17 23 35 74 58 69 30 71 25 3 -10 -42
-21 -62 -39 -74 -65 l-17 -35 -105 3 -105 3 -83 163 c-46 90 -83 169 -83 177
0 18 12 21 143 40 138 20 157 29 157 70 0 55 7 56 79 12z m-3058 -35 l31 -28
-29 -31 c-16 -17 -49 -37 -72 -44 -41 -12 -45 -12 -61 9 -10 12 -23 22 -29 22
-5 0 -13 5 -16 10 -11 18 91 90 127 90 10 0 32 -13 49 -28z m-437 -7 c-18 -14
-44 -20 -44 -10 0 7 54 34 59 29 3 -2 -4 -11 -15 -19z m663 3 c-3 -8 -6 -5 -6
6 -1 11 2 17 5 13 3 -3 4 -12 1 -19z m-1236 -108 c16 0 29 -4 29 -10 0 -15
-48 -12 -75 6 -13 8 -28 30 -35 47 l-11 32 31 -37 c23 -28 39 -38 61 -38z
m-1545 -61 c34 -41 89 -114 124 -164 70 -100 85 -119 175 -220 113 -126 109
-132 -8 -14 -63 64 -151 162 -195 218 -90 112 -202 277 -202 295 1 12 7 5 106
-115z m2392 82 c46 -42 44 -73 -2 -33 -19 16 -40 32 -47 34 -12 4 -5 28 9 28
4 0 22 -13 40 -29z m-438 1 c25 -20 18 -56 -9 -47 -11 3 -32 -14 -65 -54 -58
-71 -107 -101 -130 -82 -9 8 -16 21 -16 31 0 23 156 170 180 170 10 0 28 -8
40 -18z m3240 -11 c5 -11 10 -29 10 -41 0 -11 31 -82 70 -156 59 -115 66 -134
48 -128 -36 11 -115 5 -155 -11 -21 -9 -56 -34 -78 -55 l-41 -40 -75 78 c-41
42 -99 104 -128 137 -87 99 -167 162 -223 175 -70 17 -51 25 23 10 40 -9 77
-25 106 -47 24 -18 46 -33 50 -33 14 0 73 64 73 80 0 13 25 19 143 32 78 8
147 16 154 17 7 0 17 -8 23 -18z m791 -91 c26 -29 97 -235 119 -340 10 -52 18
-96 16 -98 -2 -2 -18 3 -34 12 -30 16 -42 34 -42 66 0 11 -13 38 -29 62 -16
24 -52 88 -81 143 -62 121 -89 168 -101 176 -6 3 -13 23 -16 44 l-6 39 79 -43
c43 -24 86 -51 95 -61z m-2077 59 c17 -13 26 -30 25 -47 0 -24 -2 -25 -12 -10
-10 15 -13 13 -22 -15 -14 -44 -53 -48 -106 -11 -57 39 -52 68 16 92 46 16 70
14 99 -9z m-2679 -29 c3 -5 1 -10 -4 -10 -6 0 -11 5 -11 10 0 6 2 10 4 10 3 0
8 -4 11 -10z m1084 -1 c37 -13 40 -36 6 -49 -13 -5 -55 -41 -93 -80 -63 -65
-72 -71 -91 -60 -40 21 -37 40 15 89 55 52 123 111 128 111 2 0 17 -5 35 -11z
m-1198 -95 c41 -42 93 -97 117 -121 24 -25 42 -46 40 -48 -5 -6 -238 223 -238
234 0 6 2 11 4 11 2 0 37 -34 77 -76z m3628 -40 c137 -148 155 -179 35 -63
-66 64 -129 119 -142 123 -31 10 -27 25 6 21 19 -2 49 -26 101 -81z m-4124 54
c49 -12 147 -61 164 -82 16 -19 3 -21 -24 -3 -23 15 -177 77 -191 77 -6 0 -19
7 -30 15 -18 14 -17 15 11 9 17 -3 48 -11 70 -16z m1280 -29 c-59 -61 -103
-83 -138 -70 -29 11 -67 57 -67 80 0 10 7 4 18 -14 45 -73 92 -72 174 5 69 64
75 64 13 -1z m3975 -18 c-1 -13 -3 -13 -15 3 -19 26 -19 42 0 26 8 -7 15 -20
15 -29z m-5997 -66 c102 -164 178 -258 392 -488 412 -441 543 -557 849 -750
94 -59 166 -107 162 -107 -11 0 -247 125 -326 173 -143 87 -298 213 -454 371
-163 164 -348 373 -447 506 -104 139 -210 312 -208 342 0 7 5 4 10 -7 5 -11
15 -29 22 -40z m5797 51 c0 -3 -4 -8 -10 -11 -5 -3 -10 -1 -10 4 0 6 5 11 10
11 6 0 10 -2 10 -4z m-1859 -55 c18 -7 9 -9 -36 -5 l-60 5 -29 -42 c-101 -146
-426 -480 -591 -608 -11 -9 54 61 145 154 91 94 223 238 294 320 70 83 139
162 151 177 21 24 27 25 62 17 22 -4 50 -13 64 -18z m941 -82 c57 -61 106
-116 109 -122 3 -7 3 -50 0 -97 l-6 -85 -250 -42 c-247 -41 -293 -48 -283 -38
5 5 96 23 283 55 221 38 225 39 225 72 0 69 -238 311 -265 268 -6 -9 -54 1
-56 13 0 4 2 25 6 47 l7 40 63 0 63 0 104 -111z m-2493 84 c-20 -24 -100 -73
-120 -73 -25 0 -69 39 -69 61 0 18 4 16 26 -10 35 -42 69 -40 125 3 50 39 57
43 38 19z m-1733 -210 c98 -103 162 -179 155 -181 -7 -2 -40 22 -73 54 -67 67
-261 281 -266 295 -12 32 37 -12 184 -168z m134 31 c112 -114 350 -304 379
-304 12 0 35 -39 28 -47 -20 -20 -256 149 -369 263 -86 89 -178 195 -178 208
0 18 26 -5 140 -120z m5114 101 c3 -8 2 -15 -3 -15 -5 0 -14 7 -21 15 -10 12
-10 15 3 15 8 0 17 -7 21 -15z m-4414 -69 l25 -31 -42 34 c-23 18 -44 40 -47
48 -8 20 32 -12 64 -51z m3255 54 c8 -13 -5 -13 -25 0 -13 8 -13 10 2 10 9 0
20 -4 23 -10z m-55 -4 c0 -2 -12 -12 -27 -21 l-28 -18 19 21 c17 20 36 29 36
18z m-2518 -23 c24 -28 36 -54 57 -131 19 -70 19 -72 1 -82 -17 -9 -22 0 -54
100 -20 60 -36 114 -36 120 0 15 15 12 32 -7z m188 -40 c0 -10 2 -36 5 -58 4
-30 3 -34 -3 -15 -16 47 -22 90 -12 90 6 0 10 -8 10 -17z m-1370 -47 c64 -34
129 -81 130 -93 0 -6 17 -25 38 -43 l37 -31 -50 32 c-78 52 -199 144 -215 165
-14 18 -14 18 5 4 11 -8 36 -24 55 -34z m393 -3 c19 -26 24 -40 17 -47 -8 -8
-13 -7 -18 1 -11 17 -36 -53 -34 -90 2 -15 -4 -38 -13 -50 -8 -12 -15 -42 -15
-67 -1 -68 -17 -28 -26 61 -8 97 23 230 55 229 3 -1 18 -17 34 -37z m4424 -15
c37 -36 53 -60 53 -78 0 -26 -37 -149 -49 -162 -3 -4 -93 -16 -199 -28 l-193
-21 -61 48 c-108 84 -118 98 -118 159 0 42 6 64 26 94 l27 40 231 0 230 0 53
-52z m-4157 32 c0 -5 -2 -10 -4 -10 -3 0 -8 5 -11 10 -3 6 -1 10 4 10 6 0 11
-4 11 -10z m3056 -17 c-7 -7 -26 7 -26 19 0 6 6 6 15 -2 9 -7 13 -15 11 -17z
m-3543 -53 c4 -3 -6 -5 -23 -2 -17 2 -33 8 -36 14 -6 10 46 0 59 -12z m5020
-70 c54 -24 56 -30 27 -122 -22 -73 -100 -190 -151 -229 -91 -70 -208 -103
-327 -93 -123 11 -102 24 63 40 38 3 95 15 125 27 101 37 215 178 234 288 5
29 2 39 -15 55 -22 20 -79 98 -79 109 0 3 17 -8 38 -24 20 -17 58 -40 85 -51z
m-203 9 c0 -48 -26 -120 -69 -193 -41 -68 -117 -153 -128 -142 -4 4 -3 10 3
14 6 4 33 34 59 66 65 80 117 195 119 262 1 57 16 51 16 -7z m-870 -56 c-3
-65 -9 -98 -17 -101 -10 -3 -13 22 -13 101 0 95 2 105 18 101 15 -4 16 -15 12
-101z m-5142 51 c4 -27 -21 -47 -48 -39 -20 6 -28 44 -13 59 15 15 58 1 61
-20z m1942 -54 c0 -5 -4 -10 -10 -10 -5 0 -10 5 -10 10 0 6 5 10 10 10 6 0 10
-4 10 -10z m-331 -91 c42 -23 97 -56 122 -74 25 -18 55 -35 66 -39 11 -3 29
-17 41 -29 l22 -23 -26 -37 -25 -37 -46 32 c-25 18 -59 45 -74 60 -16 14 -29
23 -29 20 0 -4 -4 -2 -8 4 -9 13 -133 94 -144 94 -4 0 -8 16 -8 35 0 46 14 45
109 -6z m1123 10 c116 -32 205 -86 315 -190 34 -33 69 -59 79 -59 9 0 38 12
63 26 l46 25 -35 -30 c-55 -48 -85 -43 -182 34 -92 72 -205 134 -288 159 -30
10 -102 20 -160 23 -102 5 -108 4 -213 -32 -127 -44 -197 -87 -297 -181 -80
-76 -109 -91 -85 -44 29 57 126 149 203 193 172 101 368 127 554 76z m2593
-61 c6 -6 -23 6 -63 27 -39 20 -75 41 -78 47 -7 11 126 -58 141 -74z m-4183
-115 c151 -154 201 -213 181 -213 -10 0 -373 362 -373 372 0 27 46 -11 192
-159z m3855 131 c-3 -3 -12 -4 -19 -1 -8 3 -5 6 6 6 11 1 17 -2 13 -5z m-97
-14 c0 -5 -8 -10 -17 -10 -15 0 -16 2 -3 10 19 12 20 12 20 0z m-63 -16 c-3
-3 -12 -4 -19 -1 -8 3 -5 6 6 6 11 1 17 -2 13 -5z m-2178 -25 c86 -15 185 -67
263 -139 58 -53 121 -140 101 -140 -5 0 -33 25 -63 56 -96 97 -230 174 -340
194 -95 18 -98 19 -80 30 20 13 40 12 119 -1z m2054 4 c-7 -2 -21 -2 -30 0
-10 3 -4 5 12 5 17 0 24 -2 18 -5z m-2315 -15 c-2 -6 -22 -17 -43 -25 -142
-49 -301 -205 -360 -354 -17 -43 -23 -52 -19 -29 8 43 51 133 95 197 53 78
138 153 214 189 70 34 120 44 113 22z m2249 6 c-3 -3 -12 -4 -19 -1 -8 3 -5 6
6 6 11 1 17 -2 13 -5z m567 -73 c12 -20 -451 -105 -819 -151 -88 -11 -175 -23
-192 -26 -24 -3 -33 -1 -33 9 0 10 37 18 138 31 195 25 550 80 732 115 186 35
168 33 174 22z m-3550 -135 c112 -95 135 -117 99 -97 -47 26 -263 213 -263
227 0 8 28 -15 164 -130z m1009 94 c78 -29 167 -90 207 -140 31 -39 31 -41 9
-30 -13 7 -39 26 -58 41 -18 15 -39 25 -46 22 -7 -2 -32 7 -54 21 -154 98
-377 64 -513 -77 -32 -33 -58 -64 -58 -69 0 -5 -11 -26 -25 -46 -28 -41 -30
-40 -14 9 37 108 140 225 234 265 93 38 221 40 318 4z m-1286 -427 c136 -110
454 -326 483 -328 10 -1 40 -25 65 -53 26 -29 50 -50 54 -48 4 3 12 -4 19 -15
7 -10 9 -19 4 -19 -12 0 -217 116 -285 161 -126 85 -315 237 -430 344 -113
107 -327 339 -349 380 -6 11 81 -72 194 -185 113 -113 223 -220 245 -237z
m4317 412 c-12 -18 -32 -28 -87 -40 -196 -42 -302 -64 -303 -62 -1 1 4 10 11
20 15 20 139 55 221 62 29 3 74 13 100 24 69 27 78 26 58 -4z m-4323 -93 c18
-53 41 -112 51 -130 29 -52 97 -140 114 -146 18 -7 18 -26 0 -26 -19 0 -71 60
-97 113 -12 23 -24 44 -28 47 -17 14 -91 202 -91 232 0 39 19 5 51 -90z m1261
-8 c46 -23 65 -41 55 -50 -3 -3 -24 4 -46 16 -94 47 -201 44 -298 -11 -65 -36
-84 -37 -52 -3 76 81 232 103 341 48z m1432 -16 c-56 -109 -332 -480 -454
-611 -45 -48 -109 -108 -143 -134 -54 -42 -67 -47 -112 -48 l-50 0 -2 55 -1
55 9 -43 c6 -24 16 -45 24 -48 53 -21 290 217 551 551 60 77 120 158 133 180
42 70 75 101 45 43z m1146 24 c0 -18 -37 -41 -90 -56 -231 -66 -626 -124 -958
-141 -122 -6 -123 -6 -110 14 10 17 23 21 64 21 28 0 89 4 135 10 46 5 127 15
179 21 191 22 360 50 560 93 244 52 220 48 220 38z m-4661 -457 c-1 -225 -5
-420 -7 -432 -2 -13 -10 -23 -17 -23 -14 0 -25 292 -25 674 l0 239 26 -24 26
-24 -3 -410z m2027 374 c38 -12 88 -63 108 -111 29 -69 15 -156 -35 -213 -32
-36 -103 -76 -135 -74 -10 1 -3 5 18 11 75 20 159 120 157 188 0 20 -4 17 -15
-16 -8 -23 -27 -52 -41 -65 l-27 -24 22 29 c12 16 22 38 21 50 0 21 -1 21 -10
1 -9 -18 -28 -33 -94 -72 -11 -7 -42 -13 -69 -13 -44 0 -53 4 -91 43 -34 34
-45 53 -55 100 -10 51 -9 61 7 89 47 80 135 109 239 77z m2974 7 c0 -8 -190
-130 -334 -216 -132 -78 -545 -290 -566 -290 -9 0 -16 -151 -10 -220 1 -14 22
-49 46 -79 48 -59 50 -70 34 -211 l-7 -65 -2 55 c-3 130 -11 156 -61 212 l-47
53 -7 160 c-3 92 -2 166 3 174 12 19 41 6 41 -19 l0 -20 53 21 c132 52 574
296 752 415 41 28 105 46 105 30z m-154 -15 c-17 -27 -247 -100 -421 -133 -39
-8 -80 -25 -116 -49 -103 -69 -357 -205 -500 -268 -138 -61 -415 -143 -640
-191 -153 -32 -154 -20 -3 18 161 41 509 147 589 180 124 50 132 53 220 102
125 69 223 130 304 189 46 34 94 61 105 61 27 0 173 31 326 70 127 31 144 34
136 21z m-3693 -134 c16 -14 24 -37 11 -37 -10 0 -138 91 -151 108 -7 9 -13
22 -13 29 0 11 65 -32 153 -100z m1531 -17 c3 -14 -5 -1 -19 29 -14 29 -25 56
-25 60 1 11 37 -63 44 -89z m-2463 -139 c128 -61 354 -161 365 -161 2 0 4 8 4
18 0 24 8 32 26 25 11 -4 14 -37 14 -163 l0 -157 -54 -66 c-52 -64 -53 -67
-61 -149 l-9 -83 -9 93 -8 93 50 58 51 59 0 114 0 113 -112 49 c-198 84 -403
190 -406 209 -2 9 -1 17 1 17 3 0 69 -31 148 -69z m891 38 c32 -17 13 -22 -25
-6 -42 18 -62 42 -22 27 15 -6 35 -15 47 -21z m285 -36 c-3 -10 -5 -2 -5 17 0
19 2 27 5 18 2 -10 2 -26 0 -35z m1109 -45 c26 -12 20 -13 -69 -16 -112 -3
-123 -12 -86 -63 13 -18 16 -29 8 -24 -11 6 -12 5 -1 -6 15 -16 16 -51 2 -65
-8 -8 5 -32 42 -80 55 -70 98 -136 98 -148 0 -9 -52 4 -69 18 -8 6 -2 -9 13
-33 22 -35 25 -45 14 -52 -9 -6 -25 3 -50 29 -91 92 -108 106 -135 110 -34 4
-69 35 -78 69 -5 21 -10 24 -28 17 -49 -17 -209 -4 -312 27 -111 33 -102 36
-137 -46 -25 -59 -23 -68 32 -127 27 -29 50 -56 50 -59 0 -24 200 -116 288
-134 l34 -7 -16 30 c-8 16 -40 69 -70 118 -31 48 -54 89 -52 92 10 9 30 -14
96 -113 39 -57 85 -121 102 -141 l33 -37 -55 7 c-81 10 -240 68 -303 110 -76
50 -177 160 -177 191 0 31 39 156 54 172 9 10 27 8 87 -11 207 -66 304 -35
436 136 l46 61 87 -6 c48 -4 101 -12 116 -19z m-1089 -110 c-3 -8 -6 -5 -6 6
-1 11 2 17 5 13 3 -3 4 -12 1 -19z m75 -153 c17 -27 54 -74 82 -102 53 -56 53
-72 0 -25 -63 55 -155 208 -153 252 0 8 9 -5 20 -30 11 -25 34 -67 51 -95z
m2458 87 c0 -13 -26 -28 -102 -59 -204 -83 -446 -150 -693 -193 -66 -11 -130
-23 -143 -26 -18 -4 -23 -1 -20 12 2 14 33 23 151 46 274 52 537 126 712 202
95 41 95 41 95 18z m-3139 -25 c94 -41 190 -74 314 -108 136 -36 158 -46 149
-60 -11 -19 -181 24 -369 92 -149 54 -175 66 -175 84 0 21 19 19 81 -8z m1759
-243 c-25 -48 -66 -108 -99 -143 l-56 -61 -67 0 c-37 0 -69 4 -72 9 -3 5 21
18 53 30 94 34 178 122 252 261 l24 45 3 -29 c3 -20 -10 -57 -38 -112z m120
61 c0 -20 -35 -81 -77 -132 -53 -64 -59 -52 -10 20 23 34 49 77 56 95 14 33
31 43 31 17z"/>
<path d="M5355 8150 c3 -5 13 -10 21 -10 8 0 12 5 9 10 -3 6 -13 10 -21 10 -8
0 -12 -4 -9 -10z"/>
<path d="M5800 7705 c0 -2 10 -10 23 -16 20 -11 21 -11 8 4 -13 16 -31 23 -31
12z"/>
<path d="M3784 6691 c-73 -45 -86 -117 -31 -177 60 -66 159 -50 193 32 42 101
-71 203 -162 145z m98 -68 c23 -21 23 -34 -3 -67 -23 -30 -54 -33 -81 -9 -24
22 -23 48 4 73 26 24 55 26 80 3z"/>
<path d="M4448 6573 c6 -2 18 -2 25 0 6 3 1 5 -13 5 -14 0 -19 -2 -12 -5z"/>
<path d="M4628 6553 c12 -2 30 -2 40 0 9 3 -1 5 -23 4 -22 0 -30 -2 -17 -4z"/>
<path d="M4713 6543 c9 -2 25 -2 35 0 9 3 1 5 -18 5 -19 0 -27 -2 -17 -5z"/>
<path d="M4848 6533 c6 -2 18 -2 25 0 6 3 1 5 -13 5 -14 0 -19 -2 -12 -5z"/>
<path d="M5167 6319 c7 -7 15 -10 18 -7 3 3 -2 9 -12 12 -14 6 -15 5 -6 -5z"/>
<path d="M5235 6296 c65 -22 125 -34 130 -26 3 4 -10 11 -28 14 -17 3 -43 9
-57 12 -14 3 -38 8 -55 10 -24 3 -22 1 10 -10z"/>
<path d="M5388 6263 c7 -3 16 -2 19 1 4 3 -2 6 -13 5 -11 0 -14 -3 -6 -6z"/>
<path d="M5470 6240 c8 -5 26 -9 40 -9 l25 1 -25 8 c-14 4 -32 8 -40 9 -13 1
-13 0 0 -9z"/>
<path d="M5839 6167 c5 -5 19 -7 32 -5 20 3 19 5 -9 9 -20 3 -29 2 -23 -4z"/>
<path d="M6218 6123 c7 -3 16 -2 19 1 4 3 -2 6 -13 5 -11 0 -14 -3 -6 -6z"/>
<path d="M6413 6122 c-47 -5 -41 -22 7 -22 22 0 40 4 40 9 0 14 -11 17 -47 13z"/>
<path d="M6503 6119 c14 -8 22 -8 30 0 8 8 3 11 -18 11 -26 -1 -28 -2 -12 -11z"/>
<path d="M6338 6113 c7 -3 16 -2 19 1 4 3 -2 6 -13 5 -11 0 -14 -3 -6 -6z"/>
<path d="M3423 7013 c-20 -7 -15 -23 7 -23 11 0 20 4 20 9 0 13 -12 19 -27 14z"/>
<path d="M5710 5926 c0 -2 9 -6 20 -9 11 -3 20 -1 20 4 0 5 -9 9 -20 9 -11 0
-20 -2 -20 -4z"/>
<path d="M7176 4355 c24 -39 24 -40 24 -28 0 6 -9 21 -21 34 l-20 24 17 -30z"/>
<path d="M3309 4341 c-44 -43 -51 -88 -24 -141 40 -77 175 -80 215 -5 31 57 8
128 -53 165 -52 32 -93 26 -138 -19z m128 -86 c2 -6 -14 -10 -37 -10 -39 0
-47 4 -33 19 10 10 66 3 70 -9z"/>
<path d="M3030 4325 c-23 -19 -46 -35 -52 -35 -18 0 -4 -15 74 -83 l78 -68 32
37 c62 70 62 69 19 98 -20 15 -50 40 -66 56 -16 17 -32 30 -36 30 -4 0 -26
-16 -49 -35z m95 -95 c45 -46 41 -63 -7 -29 -38 27 -58 51 -52 61 9 14 20 8
59 -32z"/>
<path d="M3344 3825 c-4 -8 -10 -12 -15 -9 -5 3 -9 0 -9 -5 0 -6 -6 -11 -13
-11 -8 0 -21 -8 -30 -18 -16 -17 -15 -20 7 -41 14 -13 30 -36 36 -52 7 -16 16
-29 20 -29 12 0 82 34 113 54 36 24 34 43 -8 89 -38 40 -90 51 -101 22z m41
-96 c0 -7 -8 -15 -17 -17 -18 -3 -25 18 -11 32 10 10 28 1 28 -15z"/>
<path d="M3306 3567 c3 -10 9 -15 12 -12 3 3 0 11 -7 18 -10 9 -11 8 -5 -6z"/>
<path d="M5168 4259 c-24 -14 -23 -50 3 -83 23 -29 60 -34 83 -10 23 23 20 42
-13 75 -31 31 -46 34 -73 18z m68 -34 c22 -33 12 -57 -23 -53 -14 2 -28 9 -31
16 -3 11 0 12 16 3 29 -15 32 -14 32 14 0 13 -8 29 -17 34 -10 6 -12 11 -6 11
7 0 20 -11 29 -25z"/>
<path d="M2605 3853 c4 -21 13 -50 22 -66 23 -45 8 -43 -23 2 -46 71 -59 49
-20 -34 27 -58 57 -88 108 -110 62 -25 148 -14 148 20 0 9 4 14 9 10 16 -9 81
60 81 86 0 21 -3 20 -22 -13 -35 -60 -134 -90 -181 -55 -15 10 -11 12 28 9 50
-4 99 14 130 48 28 31 13 33 -39 4 -36 -20 -56 -25 -82 -21 -72 12 -144 79
-144 135 0 12 -5 22 -11 22 -8 0 -9 -12 -4 -37z"/>
<path d="M4376 3787 c-18 -13 -18 -15 -1 -41 35 -52 104 -69 119 -29 9 21 -50
83 -79 83 -12 0 -29 -6 -39 -13z"/>
<path d="M7690 3740 c0 -5 5 -10 10 -10 6 0 10 5 10 10 0 6 -4 10 -10 10 -5 0
-10 -4 -10 -10z"/>
<path d="M5909 2751 c-30 -31 -31 -49 -1 -83 21 -25 47 -22 71 8 27 35 27 69
-1 88 -30 21 -35 21 -69 -13z m71 -30 c0 -5 -9 -19 -19 -32 -16 -19 -22 -21
-32 -12 -10 10 -9 17 6 33 19 20 45 27 45 11z"/>
<path d="M6013 2608 c-5 -7 -38 -40 -73 -73 -38 -35 -49 -42 -25 -17 53 57 34
53 -29 -6 -56 -54 -96 -79 -96 -62 0 5 3 10 8 10 4 0 16 13 27 28 l19 27 -34
-29 c-19 -15 -60 -51 -91 -80 -68 -63 -246 -200 -299 -230 l-39 -22 55 -43 55
-43 69 57 c76 62 453 444 470 475 12 22 -3 28 -17 8z m-443 -441 c0 -2 -10
-12 -22 -23 l-23 -19 19 23 c18 21 26 27 26 19z"/>
<path d="M4997 2432 c-22 -24 -21 -45 1 -65 23 -21 39 -22 22 -2 -11 13 -10
18 6 30 20 15 44 20 44 8 0 -3 -8 -15 -17 -26 -14 -16 -15 -19 -3 -15 8 2 19
17 25 32 8 23 6 30 -10 42 -26 19 -49 18 -68 -4z m43 -9 c-8 -3 -21 -10 -28
-16 -9 -7 -11 -6 -6 7 3 9 16 16 28 15 14 0 16 -2 6 -6z"/>
<path d="M5332 2278 c-17 -17 -15 -32 8 -53 20 -18 21 -18 43 3 17 18 19 26
11 40 -14 21 -45 27 -62 10z"/>
<path d="M3608 2872 c-4 -12 1 -18 13 -18 14 0 15 4 8 18 -5 10 -11 18 -13 18
-2 0 -6 -8 -8 -18z"/>
<path d="M7963 2750 c-19 -8 -21 -14 -16 -47 3 -21 10 -44 16 -50 13 -17 108
-17 131 0 17 13 18 17 4 58 -14 44 -15 44 -64 46 -27 1 -59 -2 -71 -7z m65
-76 c-10 -10 -28 6 -28 24 0 15 1 15 17 -1 9 -9 14 -19 11 -23z"/>
<path d="M7530 2733 c-84 -11 -90 -13 -105 -50 -17 -40 -19 -57 -6 -49 5 3 18
-14 30 -39 12 -25 37 -63 57 -85 l36 -39 52 29 c34 20 73 32 113 36 l61 7 -45
70 c-25 39 -50 83 -55 98 -8 24 -13 26 -36 20 -15 -4 -38 -5 -52 -2 -14 4 -36
5 -50 4z"/>
<path d="M7315 2648 c15 -18 53 -60 84 -93 31 -34 68 -76 83 -95 22 -29 28
-33 40 -22 11 11 10 15 -4 23 -26 14 -140 128 -177 177 -18 23 -37 42 -43 42
-5 0 2 -15 17 -32z"/>
<path d="M6237 2773 c-4 -3 -7 -13 -7 -22 1 -13 3 -13 11 2 11 19 8 33 -4 20z"/>
<path d="M7858 2330 c-226 -5 -275 -10 -229 -25 27 -8 27 -25 1 -32 -21 -6
-29 -52 -10 -54 6 -1 14 -2 19 -3 5 0 36 -29 68 -63 l59 -62 169 14 c109 9
172 19 180 27 13 15 55 111 55 127 0 14 -41 61 -60 69 -8 4 -122 5 -252 2z
m-146 -42 c-6 -6 -15 -8 -19 -4 -4 4 -1 11 7 16 19 12 27 3 12 -12z m356 -43
c-2 -3 -69 -7 -149 -11 -107 -5 -148 -11 -161 -22 -24 -20 -23 -11 1 17 17 20
31 22 157 27 77 3 141 8 144 10 2 3 6 0 8 -6 2 -6 2 -13 0 -15z m-328 -63 c0
-13 -12 -22 -22 -16 -10 6 -1 24 13 24 5 0 9 -4 9 -8z"/>
<path d="M7433 2205 c0 -44 2 -61 4 -37 2 23 2 59 0 80 -2 20 -4 1 -4 -43z"/>
<path d="M4686 1565 c-16 -42 -6 -77 33 -116 32 -32 46 -39 77 -39 53 0 85 19
101 57 l13 33 -40 -21 c-69 -36 -129 -10 -163 70 -11 26 -15 29 -21 16z"/>
<path d="M7860 9090 c14 -10 99 -73 190 -139 91 -67 198 -151 238 -187 40 -36
76 -63 80 -60 3 4 -5 17 -20 29 -14 12 -46 40 -72 62 -47 40 -66 56 -124 108
-18 15 -37 27 -43 27 -6 0 -49 30 -96 66 -47 36 -93 68 -102 72 -9 3 -25 14
-35 24 -11 10 -25 18 -30 17 -6 0 0 -9 14 -19z"/>
<path d="M8520 8544 c20 -21 90 -95 155 -164 208 -217 442 -513 585 -740 105
-166 116 -169 33 -10 -67 126 -84 154 -118 190 -18 19 -41 49 -52 66 -24 39
-79 106 -178 214 -96 103 -300 330 -345 382 -17 21 -51 52 -73 70 l-42 32 35
-40z"/>
<path d="M9626 6943 c65 -170 88 -237 125 -367 22 -76 37 -141 34 -145 -3 -3
-30 -20 -58 -37 -63 -37 -66 -50 -38 -165 32 -133 60 -322 72 -484 15 -197 6
-695 -15 -830 -9 -55 -16 -106 -16 -114 0 -8 -28 -41 -62 -73 -35 -33 -49 -51
-31 -39 17 12 34 21 38 21 4 0 29 20 56 44 67 60 110 79 152 68 l34 -10 13
112 c43 375 23 854 -51 1220 -11 54 -18 106 -14 115 3 10 -3 7 -14 -6 -11 -13
-24 -23 -29 -23 -30 0 -23 127 10 173 18 26 18 30 5 51 -14 21 -33 71 -113
294 -18 51 -44 113 -58 137 -14 24 -30 60 -34 81 -4 21 -13 39 -20 42 -8 2 -3
-21 14 -65z"/>
<path d="M620 6426 c0 -2 4 -16 10 -30 8 -22 4 -31 -40 -78 -28 -29 -48 -59
-45 -66 3 -7 -4 -48 -15 -90 -21 -84 -42 -221 -62 -402 -19 -175 -16 -656 5
-807 20 -146 20 -143 3 -143 -15 0 -31 102 -46 285 -7 83 -8 66 -6 -97 1 -109
5 -201 9 -204 3 -3 41 -7 85 -9 129 -5 156 -17 242 -103 42 -43 100 -99 128
-126 29 -27 52 -56 52 -64 0 -16 -77 -92 -93 -92 -5 0 -27 -13 -50 -28 -23
-16 -65 -44 -94 -62 -53 -35 -63 -51 -63 -105 0 -66 70 -338 91 -351 5 -3 9
-14 9 -26 0 -27 135 -310 171 -356 37 -48 26 0 -30 129 -32 74 -75 181 -95
239 -36 100 -116 382 -116 405 0 6 60 50 133 98 72 48 146 99 162 112 l30 26
-159 152 -158 152 -19 140 c-26 193 -34 472 -20 696 11 176 54 509 85 649 13
56 13 67 0 81 -18 20 -104 82 -104 75z"/>
<path d="M494 6223 c-3 -16 -9 -41 -14 -58 -9 -32 -23 -191 -16 -184 2 2 13
54 25 114 12 61 24 120 27 133 4 13 2 22 -5 22 -6 0 -13 -12 -17 -27z"/>
<path d="M9981 5564 c0 -11 3 -14 6 -6 3 7 2 16 -1 19 -3 4 -6 -2 -5 -13z"/>
<path d="M9451 4532 l-54 -48 64 -45 c174 -123 229 -160 229 -155 0 3 -35 31
-77 63 -43 31 -99 73 -125 92 -54 39 -60 63 -23 87 21 14 53 54 43 54 -2 0
-27 -22 -57 -48z"/>
<path d="M802 4289 c-45 -28 -82 -56 -82 -62 0 -19 42 -182 49 -190 8 -8 150
89 157 108 4 10 -33 195 -39 195 -1 0 -39 -23 -85 -51z"/>
<path d="M9501 4303 c-16 -61 -34 -163 -30 -167 2 -2 38 -26 79 -54 50 -34 77
-46 82 -38 6 10 48 167 48 179 0 6 -82 66 -132 96 l-37 22 -10 -38z"/>
<path d="M966 3337 c15 -79 68 -197 127 -282 15 -22 40 -58 54 -80 14 -22 32
-44 38 -50 7 -5 25 -32 40 -60 16 -27 49 -77 74 -110 25 -33 62 -85 82 -115
19 -30 47 -68 62 -84 14 -15 29 -37 32 -47 4 -11 10 -19 15 -19 4 0 11 -7 14
-16 8 -22 -30 -73 -112 -151 -36 -35 -62 -66 -58 -70 8 -8 236 221 236 237 0
5 -33 49 -73 97 -211 255 -475 647 -493 734 -3 14 -14 31 -25 37 -17 11 -18 9
-13 -21z"/>
<path d="M9295 3120 c-3 -5 -1 -10 4 -10 6 0 11 5 11 10 0 6 -2 10 -4 10 -3 0
-8 -4 -11 -10z"/>
<path d="M2126 3067 c3 -10 9 -15 12 -12 3 3 0 11 -7 18 -10 9 -11 8 -5 -6z"/>
<path d="M9250 3050 c-6 -11 -8 -20 -6 -20 3 0 10 9 16 20 6 11 8 20 6 20 -3
0 -10 -9 -16 -20z"/>
<path d="M2097 3047 c-3 -8 4 -28 15 -46 22 -34 37 -36 19 -3 -6 12 -11 30
-11 41 0 23 -15 28 -23 8z"/>
<path d="M9205 2984 c-9 -15 -12 -23 -6 -20 11 7 35 46 28 46 -3 0 -12 -12
-22 -26z"/>
<path d="M9085 2808 c-32 -45 -105 -139 -163 -211 -76 -94 -101 -132 -93 -140
8 -8 11 -7 11 4 0 15 44 70 134 171 24 26 55 66 71 90 46 70 64 96 87 128 12
16 19 32 17 35 -3 3 -32 -32 -64 -77z"/>
<path d="M8880 2406 c0 -2 8 -10 18 -17 15 -13 16 -12 3 4 -13 16 -21 21 -21
13z"/>
<path d="M8920 2367 c0 -2 15 -16 33 -33 l32 -29 -29 33 c-28 30 -36 37 -36
29z"/>
<path d="M9110 2177 c52 -53 96 -97 98 -97 9 0 -78 92 -133 140 -39 35 -26 19
35 -43z"/>
<path d="M1238 2168 c-37 -39 -66 -74 -63 -76 4 -4 145 137 145 145 0 13 -23
-7 -82 -69z"/>
<path d="M1065 1980 l-89 -95 94 92 c52 51 92 94 90 95 -3 2 -45 -40 -95 -92z"/>
<path d="M9300 1987 c30 -31 56 -57 58 -57 9 0 -19 31 -63 70 l-50 44 55 -57z"/>
<path d="M9218 1994 c6 -12 21 -28 34 -36 13 -9 39 -31 59 -49 20 -19 70 -65
112 -103 43 -37 77 -73 77 -80 0 -6 17 -22 38 -35 20 -14 58 -45 84 -69 48
-46 68 -48 68 -7 0 17 -11 30 -39 46 -21 12 -43 31 -49 44 -6 12 -34 41 -63
66 -29 24 -77 68 -106 98 -30 29 -56 52 -58 49 -2 -2 53 -62 123 -132 192
-194 156 -169 -148 104 -58 52 -114 102 -124 110 -18 14 -19 14 -8 -6z"/>
<path d="M2312 1824 c10 -10 20 -16 22 -13 3 3 -5 11 -17 18 -21 13 -21 12 -5
-5z"/>
</g>
</svg>
